<svg id="SvgjsSvg1001" width="288" height="288" xmlns="http://www.w3.org/2000/svg" version="1.1" xmlns:xlink="http://www.w3.org/1999/xlink" xmlns:svgjs="http://svgjs.com/svgjs"><defs id="SvgjsDefs1002"></defs><g id="SvgjsG1008"><svg xmlns="http://www.w3.org/2000/svg" viewBox="169.24 298.84 864.45 610.01" width="288" height="288"><g class="color000 svgShape" data-name="4" fill="#000000"><g class="color000 svgShape" data-name="Bottom plug" fill="#000000"><path fill="#ffffff" d="M960.3,875.42a238.14,238.14,0,0,1-28.13-20.91c-14.9-12.92-16.49-24.86-15.2-32.6a26.64,26.64,0,0,1,15.89-20c10.76-4.36,17.62-8.37,20.37-11.93,1.47-1.9,1.67-3.53,1.63-8.13-.07-6.89-11.81-18-44.55-28.58a374.4,374.4,0,0,0-50.1-12l3.07-19.77a388.82,388.82,0,0,1,53,12.63c39.25,12.63,58.42,28.16,58.62,47.48.16,16.41-5.13,26.91-34.5,38.8a6.61,6.61,0,0,0-3.66,4.71c-.63,3.76,2.5,8.94,8.58,14.21,23.25,20.18,53.31,36.73,84.63,46.6l-6,19.08A271.26,271.26,0,0,1,960.3,875.42Z" class="colorfff svgShape"></path><path fill="#172554" d="M1025.85,908.85,1023,908a275.31,275.31,0,0,1-64.3-30,242.61,242.61,0,0,1-28.49-21.17c-15.94-13.84-17.6-26.87-16.19-35.36a29.68,29.68,0,0,1,17.72-22.25c12.79-5.18,17.46-8.83,19.12-11,.8-1,1-1.74,1-6.26s-9-15-42.48-25.76a369.27,369.27,0,0,0-49.63-11.85l-3-.47,4-25.68,3,.46a390.48,390.48,0,0,1,53.42,12.73c40.64,13.08,60.5,29.53,60.71,50.31.17,17.37-5.58,29.14-36.38,41.61a3.71,3.71,0,0,0-1.82,2.42c-.33,2,1.46,6.14,7.58,11.45,23,19.92,52.63,36.26,83.57,46l2.86.91Zm-63.93-36a269.35,269.35,0,0,0,60,28.42l4.21-13.35c-30.67-10.09-60-26.46-82.84-46.28-7-6.07-10.38-12.09-9.57-17a9.56,9.56,0,0,1,5.49-7c27.94-11.31,32.78-20.61,32.63-36-.18-17.86-18.68-32.47-56.54-44.66a385.19,385.19,0,0,0-49.54-12l-2.15,13.84a377.76,377.76,0,0,1,47.6,11.57c29.53,9.53,46.52,21,46.63,31.41,0,4.86-.15,7.27-2.26,10-3.12,4-10.19,8.26-21.62,12.88a23.58,23.58,0,0,0-14.05,17.68c-1.16,7,.36,17.82,14.2,29.84A236.8,236.8,0,0,0,961.92,872.89Z" class="color4f3cc9 svgShape"></path><path fill="#3b82f6" d="M820.9,620.68l-50.11-17.26L711.52,775.5l50.11,17.26a91,91,0,0,0,115.67-56.4h0A91,91,0,0,0,820.9,620.68Z" class="color77e0b5 svgShape"></path><path fill="#172554" d="M791.18,800.73a93.58,93.58,0,0,1-30.53-5.13L707.7,777.36l61.23-177.75,53,18.23a94,94,0,0,1-30.7,182.89Zm-75.85-27.09,47.27,16.28a88,88,0,0,0,57.32-166.4l-47.27-16.29Z" class="color4f3cc9 svgShape"></path><path fill="#d8b4fe" d="M770.3,698.49c-18.43,53.51-56.28,89-84.55,79.25-9.57-3.3-33.77-9.82-38.45-21.11-9.14-22.06,8.44-58,20.63-93.39,11.52-33.44,15.8-72.49,35.41-85.21,11.77-7.64,38.54,2.31,49.14,6C780.75,593.73,788.73,645,770.3,698.49Z" class="colorf582ae svgShape"></path><path fill="#172554" d="M695.57,782.36a32.85,32.85,0,0,1-10.8-1.79c-1.14-.39-2.5-.83-4-1.32C669,775.41,649.17,769,644.53,757.78c-7.82-18.87,2.35-46.15,13.12-75,2.51-6.72,5.09-13.66,7.45-20.49,3.19-9.28,5.85-19.09,8.42-28.57,6.75-24.89,13.12-48.4,28.19-58.18,12.39-8,37.79.79,50,5l1.75.61c14.77,5.08,24.86,20.43,28.41,43.21,3.43,22.1.33,48.77-8.74,75.1h0c-9.06,26.33-23,49.26-39.37,64.55C720.89,776.08,707.68,782.36,695.57,782.36ZM715.19,578.2c-4.05,0-7.62.66-10.21,2.34-13.15,8.53-19.23,31-25.67,54.72-2.59,9.58-5.28,19.48-8.54,29-2.38,6.91-5,13.88-7.5,20.63-10.34,27.75-20.12,53.95-13.2,70.64,3.59,8.65,22.42,14.77,32.54,18.06,1.55.51,2.94,1,4.11,1.36,12.57,4.33,27.82-1.09,42.94-15.26,15.62-14.64,29.05-36.7,37.8-62.12s11.77-51.07,8.48-72.23c-3.19-20.47-11.87-34.13-24.43-38.46l-1.78-.62C742,583.54,726.68,578.2,715.19,578.2Z" class="color4f3cc9 svgShape"></path><ellipse cx="692.42" cy="671.67" fill="#ffffff" class="colorfff svgShape" rx="102.46" ry="54.13" transform="rotate(-70.99 692.477 671.677)"></ellipse><path fill="#172554" d="M668.87,773.17a33.05,33.05,0,0,1-10.79-1.79c-14.78-5.09-24.86-20.44-28.41-43.21-3.44-22.11-.34-48.78,8.73-75.11s23.05-49.25,39.37-64.54c16.82-15.77,34.22-21.65,49-16.56s24.86,20.44,28.4,43.22c3.44,22.1.34,48.77-8.73,75.1s-23.05,49.25-39.37,64.55C694.2,766.89,681,773.17,668.87,773.17Zm47.1-197c-10.57,0-22.37,5.73-34.09,16.71-15.62,14.64-29,36.71-37.8,62.13s-11.77,51.07-8.48,72.22c3.19,20.48,11.86,34.14,24.43,38.47s27.82-1.09,42.94-15.26c15.62-14.64,29-36.7,37.8-62.13h0c8.75-25.42,11.76-51.07,8.47-72.22-3.18-20.48-11.86-34.14-24.43-38.47A27,27,0,0,0,716,576.18Z" class="color4f3cc9 svgShape"></path><ellipse cx="704.96" cy="624.11" fill="#172554" class="color4f3cc9 svgShape" rx="17.5" ry="11" transform="rotate(-70.99 705.018 624.119)"></ellipse><ellipse cx="673.05" cy="716.77" fill="#172554" class="color4f3cc9 svgShape" rx="17.5" ry="11" transform="rotate(-70.99 673.099 716.78)"></ellipse></g><g class="color000 svgShape" data-name="Top plug" fill="#000000"><path fill="#ffffff" d="M475.56,601.18l92.78,32.34a14.76,14.76,0,0,1,9.07,18.79h0a14.76,14.76,0,0,1-18.79,9.07L465.85,629Z" class="colorfff svgShape"></path><path fill="#172554" d="M563.46,665.2a17.67,17.67,0,0,1-5.82-1L462,630.88l11.69-33.52,95.6,33.33a17.75,17.75,0,0,1-5.86,34.51Zm-93.79-38,89.94,31.36a11.75,11.75,0,1,0,7.74-22.19L477.41,605Z" class="color4f3cc9 svgShape"></path><path fill="#ffffff" d="M507.83,508.64,600.6,541a14.75,14.75,0,0,1,9.07,18.78h0a14.75,14.75,0,0,1-18.78,9.07L498.11,536.5Z" class="colorfff svgShape"></path><path fill="#172554" d="M595.73,572.67a17.72,17.72,0,0,1-5.83-1l-95.61-33.34L506,504.82l95.61,33.33a17.76,17.76,0,0,1-5.86,34.52Zm-93.79-38L591.88,566a11.75,11.75,0,0,0,14.44-16.21,11.64,11.64,0,0,0-6.71-6l-89.94-31.36Z" class="color4f3cc9 svgShape"></path><path fill="#3b82f6" d="M418.39,446.75l73.41,25.59a27.59,27.59,0,0,1,17,35.13L467,627.23a27.59,27.59,0,0,1-35.13,17l-73.41-25.6A83.67,83.67,0,0,1,307,512.05l4.83-13.85A83.66,83.66,0,0,1,418.39,446.75Z" class="color77e0b5 svgShape"></path><path fill="#172554" d="M441,648.75A30.57,30.57,0,0,1,430.9,647l-73.42-25.6a86.76,86.76,0,0,1-53.3-110.37L309,497.22a86.78,86.78,0,0,1,110.38-53.31l73.41,25.6a30.59,30.59,0,0,1,18.81,38.95L469.84,628.22A30.65,30.65,0,0,1,441,648.75ZM390.91,445.08a80.8,80.8,0,0,0-76.24,54.11L309.84,513a80.77,80.77,0,0,0,49.62,102.73l73.41,25.59a24.57,24.57,0,0,0,31.31-15.12l41.75-119.76a24.58,24.58,0,0,0-15.12-31.31L417.4,449.58A80.19,80.19,0,0,0,390.91,445.08Z" class="color4f3cc9 svgShape"></path><path fill="#d8b4fe" d="M509,573.65c-18,51.63-50.89,87.1-82.08,76.22l-7.73-2.69a7.81,7.81,0,0,1-.87-14.28c20.86-10.84,38.06-38.75,50.13-73.39s16-67.18,6.37-88.65a7.81,7.81,0,0,1,9.56-10.64l7.72,2.69C523.29,473.79,527,522,509,573.65Z" class="colorf582ae svgShape"></path><path fill="#172554" d="M438.47,654.86a37.94,37.94,0,0,1-12.55-2.15L418.16,650a10.53,10.53,0,0,1-7.06-9.34,10.74,10.74,0,0,1,5.83-10.42c18.65-9.7,35.94-35.17,48.68-71.72s15-67.24,6.46-86.43A10.77,10.77,0,0,1,474,460.3a10.56,10.56,0,0,1,11.36-2.92l5.44,1.9,2.3.8c16,5.58,26,20.29,28.88,42.53,2.62,20.19-1,45.77-10.14,72S489.58,623.17,475,637.35C463.05,649,450.63,654.86,438.47,654.86Zm43.37-192.07a4.62,4.62,0,0,0-3.43,1.56,4.83,4.83,0,0,0-.86,5.29c11.8,26.39,3.1,64-6.27,90.86s-25.93,61.73-51.58,75.06a4.83,4.83,0,0,0-2.61,4.68,4.56,4.56,0,0,0,3.09,4.11l7.71,2.69c17.34,6,32.91-4.27,42.92-14,13.94-13.55,26.49-35,35.35-60.39s12.35-50,9.85-69.28c-1.79-13.83-7.56-31.59-24.9-37.64l-7.73-2.69A4.88,4.88,0,0,0,481.84,462.79Z" class="color4f3cc9 svgShape"></path><path fill="#ffffff" d="M221,468.12c-35.09-22.38-51-43.74-48.52-64.91a22.84,22.84,0,0,1,9.07-15.57c15.43-12,46.67-9.94,64-7.63,20.87,2.13,51.38-.73,54.59-11.7,2-6.91-7.59-18.75-29.43-27.06C229.63,325.62,186.93,322,186.51,322l1.6-19.94c1.86.15,46,3.85,89.71,20.49,37.57,14.3,45.85,36.62,41.52,51.38s-19.09,23.32-44,25.88a172.28,172.28,0,0,1-32,.06l-.28,0c-26.31-3.52-43.69-.74-49.25,3.58-1.35,1.05-1.43,1.74-1.47,2.11-1.88,16,22.16,38.18,66,60.86A617.79,617.79,0,0,0,324,495.14a10,10,0,0,1,6,12.59h0A10,10,0,0,1,317,513.9a631.79,631.79,0,0,1-67.71-29.64Q233.51,476.1,221,468.12Z" class="colorfff svgShape"></path><path fill="#172554" d="M320.46,517.53a12.89,12.89,0,0,1-4.52-.82,635.31,635.31,0,0,1-68-29.79c-10.57-5.46-20.17-10.94-28.53-16.27h0c-36.22-23.09-52.53-45.27-49.89-67.79a25.8,25.8,0,0,1,10.21-17.59C196,372.6,228.2,374.67,246,377c21.73,2.23,48.94-1.46,51.32-9.56,1.37-4.68-6.46-15.36-27.63-23.41C229,328.59,186.69,325,186.27,325l-3-.24,2.08-25.92,3,.24c1.88.15,46.46,3.9,90.54,20.67,39.49,15,48,39.05,43.32,55s-20.32,25.31-46.56,28a175.63,175.63,0,0,1-32.64.06l-.3,0c-25.37-3.39-42.17-.84-47.07,3a3.68,3.68,0,0,0-.36.31c-1.39,14.5,22.63,36,64.39,57.63A613.7,613.7,0,0,0,325,492.32a13,13,0,0,1-4.53,25.21Zm-100-136.3c-13.83,0-28.31,2-37.08,8.78a19.94,19.94,0,0,0-7.93,13.55c-2.35,20,13.07,40.3,47.16,62h0c8.21,5.23,17.65,10.62,28.05,16A626.62,626.62,0,0,0,318,511.08,7,7,0,0,0,322.9,498a620.31,620.31,0,0,1-66-28.88c-45.63-23.64-69.63-46.32-67.56-63.88a5.79,5.79,0,0,1,2.61-4.13c7.38-5.74,27.6-7.38,51.49-4.18l.23,0a171.15,171.15,0,0,0,31.36-.06c23.57-2.43,37.51-10.42,41.42-23.74,4-13.54-4-34.16-39.71-47.74-37.37-14.22-75.11-18.91-85.89-20l-1.13,14c10.48,1.11,46.82,5.73,82,19.14,24.88,9.46,33.64,22.55,31.24,30.71-4.25,14.49-40.76,15.57-57.77,13.83A191.84,191.84,0,0,0,220.45,381.23Z" class="color4f3cc9 svgShape"></path></g><rect width="6" height="46.37" x="615.68" y="335.64" fill="#172554" class="color4f3cc9 svgShape" transform="rotate(-26.57 618.561 358.798)"></rect><rect width="60.3" height="6" x="684.25" y="352.92" fill="#172554" class="color4f3cc9 svgShape" transform="rotate(-64.99 714.472 355.913)"></rect><rect width="39.42" height="6" x="755.51" y="438.69" fill="#172554" class="color4f3cc9 svgShape" transform="rotate(-21.2 775.295 441.726)"></rect><rect width="35.73" height="6" x="359.9" y="801.17" fill="#172554" class="color4f3cc9 svgShape" transform="rotate(-25.3 377.791 804.213)"></rect><rect width="57.46" height="6" x="418.77" y="870.32" fill="#172554" class="color4f3cc9 svgShape" transform="rotate(-56.5 450.064 877.53)"></rect><rect width="6" height="34.25" x="550.1" y="854.87" fill="#172554" class="color4f3cc9 svgShape" transform="rotate(-25.3 552.945 871.839)"></rect></g></svg></g></svg>