<svg id="SvgjsSvg1001" width="288" height="288" xmlns="http://www.w3.org/2000/svg" version="1.1" xmlns:xlink="http://www.w3.org/1999/xlink" xmlns:svgjs="http://svgjs.com/svgjs"><defs id="SvgjsDefs1002"></defs><g id="SvgjsG1008"><svg xmlns="http://www.w3.org/2000/svg" viewBox="155.09 34.52 289.81 330.96" width="288" height="288"><path fill="#1d4ed8" d="M225.657 362.503a.512.512 0 0 0 .048-.552c.612-.708 0-1.692.516-2.424.048-.347.084-.695.12-1.043.516-.78-.036-1.764.504-2.532a.456.456 0 0 0 .06-.528c.588-.731 0-1.703.516-2.447.048-.336.084-.672.12-1.008.48-.791-.036-1.787.503-2.567a.497.497 0 0 0 .06-.528c.576-.732-.012-1.703.504-2.447.048-.348.084-.684.12-1.02.54-1.032-.048-2.22.456-3.263 1.572-.78 2.88.204 4.247.672 5.339 1.847 10.653 3.695 16.388 4.019 5.183.3 9.321-2.76 14.816-3.708-3.467-1.63-6.526.948-9.525-1.151 3.119-2.676 7.45-1.332 10.509-4.055a6.905 6.905 0 0 0-3.767.024 20.462 20.462 0 0 1-5.927.204c-.672-.084-1.535-.216-1.595-1.032-.06-.744.635-1.176 1.283-1.488a18.342 18.342 0 0 1 3.743-.911c1.548-.396 3.324-.348 4.583-1.836-1.367-.9-2.687-.54-3.935-.54a29.879 29.879 0 0 1-7.378-.755c-4.15-1.008-5.014-2.34-4.21-6.599a27.388 27.388 0 0 0 .839-4.379c.024-.768.24-1.763-.6-2.147-.96-.432-1.332.6-1.763 1.2a15.414 15.414 0 0 1-7.846 6.094c-2.172.684-4.451 1.26-6.43-.6-.757-2.76.035-5.507.24-8.23.275-3.947.767-7.882 1.175-11.9-2.903 1.463-4.355 4.618-7.342 5.842-2.748-1.38-5.015-3.467-7.45-5.267-9.19-6.826-18.044-14.072-27.173-20.97a1.706 1.706 0 0 1-.504-.72 1.122 1.122 0 0 1 .192-1.224c.324-.288.203-.9.671-1.104a1.24 1.24 0 0 1 .54-.672c.168-.204.336-.42.504-.623l.024-.049c.408-.227.252-.863.732-1.031a.918.918 0 0 1 .54-.648 2.154 2.154 0 0 1 .552-.636 2.671 2.671 0 0 0 .456-.588.285.285 0 0 0 .204-.36 1.145 1.145 0 0 1 .54-.816l.011-.012a6.429 6.429 0 0 0 .492-.635l.048-.06c.42-.204.252-.852.744-.996a.829.829 0 0 1 .54-.648 1.791 1.791 0 0 1 .552-.648 4.964 4.964 0 0 0 .503-.624l.049-.06c.408-.204.251-.84.72-1.007a.963.963 0 0 1 .551-.648 1.594 1.594 0 0 1 .564-.6 2.078 2.078 0 0 1 .588-.624c.18-.204.36-.42.552-.624l.024-.036a1.747 1.747 0 0 0 .492-.576l.072-.083c.432-.168.264-.84.756-.96a.727.727 0 0 1 .563-.636.894.894 0 0 1 .576-.612 1.11 1.11 0 0 1 .576-.612 1.511 1.511 0 0 1 .564-.6l.024-.024a4.42 4.42 0 0 1 .528-.623l.024-.012a2.394 2.394 0 0 0 .504-.6l.06-.072c.575-.42.695-1.188 1.295-1.584v-.012a1.092 1.092 0 0 1 .576-.648 1.593 1.593 0 0 1 .564-.6 2.38 2.38 0 0 1 .588-.611l.012-.013a4.57 4.57 0 0 1 .576-.6v-.011c.192-.192.384-.396.588-.588l.011-.012c.193-.192.384-.396.588-.588l.012-.012c.192-.192.384-.384.564-.576l.024-.024a6.229 6.229 0 0 0 .54-.588l.048-.048a2.063 2.063 0 0 0 .516-.552l.06-.084a1.104 1.104 0 0 0 .504-.515l.096-.108a.9.9 0 0 0 .492-.492l.108-.108a1.004 1.004 0 0 0 .503-.492l.084-.084a1.365 1.365 0 0 0 .54-.504l.072-.06a2.582 2.582 0 0 0 .564-.516l.036-.036c.204-.18.408-.36.6-.552l.012-.012a4.45 4.45 0 0 1 .6-.563v-.012h.012a2.236 2.236 0 0 1 .588-.576 1.724 1.724 0 0 1 .6-.576 1.445 1.445 0 0 1 .611-.588 1.291 1.291 0 0 1 .612-.6.909.909 0 0 1 .636-.564.655.655 0 0 1 .636-.552c.084-.503.768-.335.936-.767l.096-.096a.938.938 0 0 0 .503-.48l.097-.096a1.427 1.427 0 0 0 .54-.492l.071-.06c.204-.156.408-.336.6-.516l.012-.012a2.175 2.175 0 0 1 .612-.54l.024-.024a1.15 1.15 0 0 1 .612-.551.822.822 0 0 1 .648-.564c.12-.468.768-.3.935-.744l.108-.096a.921.921 0 0 0 .516-.48l.084-.084a1.285 1.285 0 0 0 .528-.516l.072-.072a4.104 4.104 0 0 0 .624-.48l.012-.012c.348-.372.888-.3 1.296-.552a.382.382 0 0 0 .468-.084c.755-.552 1.74.024 2.495-.516l1.092-.108a2.54 2.54 0 0 1 1.427-.227 51.123 51.123 0 0 0 7.642-.912c1.752-.408 3.54-.672 5.303-1.02.264-.108.54-.192.816-.288 1.056-.396 2.171-.576 3.251-.936a8.647 8.647 0 0 1 1.248-.312 14.545 14.545 0 0 1 3.443-.564 5.389 5.389 0 0 1 .876.072 5.79 5.79 0 0 0 2.519.384c1.02.252 2.1-.12 3.131.048-.984-.18-2.003.144-2.975-.072a5.741 5.741 0 0 1-1.752-.144c-2.195-1.715-.563-3.73-.432-5.626a1.99 1.99 0 0 1 .576-.756 3.412 3.412 0 0 1 1.356-.444c4.87-.492 9.513-1.967 14.18-3.311 2.196-.3 2.352 1.668 3.443 3.227-.851-1.38-1.127-2.591-2.135-3.359-.768-1.524-1.716-2.987-1.512-4.81a6.734 6.734 0 0 1 2.46-.6c.216-.013.42-.013.624-.013a.972.972 0 0 1 1.175 0 1.211 1.211 0 0 0 1.056.12.634.634 0 0 0 .816-.024l.912.036c1.403.588 2.95-.132 4.355.468a.38.38 0 0 0 .503.108c.552.42 1.32.072 1.884.492a.48.48 0 0 0 .528.096c.372.3.912.192 1.235.588a5.719 5.719 0 0 0 .612.444.283.283 0 0 0 .372.192 1.01 1.01 0 0 1 .78.6 1.291 1.291 0 0 1 .624.587c.384.288.288.828.612 1.14.528.492.132 1.272.54 1.8.407.312.36.72.288 1.151-.252.552-.792.768-1.272 1.056a17.068 17.068 0 0 1-2.627.924 16.288 16.288 0 0 0 2.77-.912c.445-.24.913-.48 1.38-.684a4.255 4.255 0 0 0 1.44-.324c.36-.036.72-.083 1.08-.132a.662.662 0 0 1 .852.216 24.002 24.002 0 0 1-1.836 15.86c-1.883 3.863-5.327 4.02-8.014.66a8.704 8.704 0 0 1-1.943-5.495c-.012-2.567.024-5.146-.024-7.713-.024-1.464-.492-2.52-2.184-2.556a2.23 2.23 0 0 0-2.52 2.328c-.3 4.726-.731 9.49.984 14.084a12.119 12.119 0 0 0 9.082 7.774c3.251.804 7.39-2.195 9.07-6.214.828-1.968.684-4.367 2.543-5.89.612.023.888.443 1.104.935a25.686 25.686 0 0 1 .144 8.242 118.678 118.678 0 0 0-.492 14.744 26.662 26.662 0 0 0 3.755 12.057 8.46 8.46 0 0 1 1.44 3.215c.3.936-.504 1.788-.18 2.724a.873.873 0 0 0 .156.515c.6.96-.072 2.148.516 3.12a.32.32 0 0 0 .06.443c.671.924-.108 2.112.564 3.036a.51.51 0 0 0 .06.552c.54.743-.048 1.727.527 2.471a.403.403 0 0 0 .072.504c.432.588.12 1.367.492 1.98a.256.256 0 0 0 .06.395c.612.744.012 1.752.552 2.52a.336.336 0 0 0 .072.455c.48.528.06 1.32.528 1.836l-.012-.036c.696.732.06 1.775.588 2.531l.108 1.044c.54.732-.072 1.716.528 2.435a.478.478 0 0 0 .084.54c.395.6.108 1.368.467 1.98a.251.251 0 0 0 .073.396c.611.732-.024 1.74.551 2.483a.438.438 0 0 0 .072.504c.432.612.156 1.392.48 2.04l-.06.18.132.143c.516.564.132 1.368.552 1.956a.323.323 0 0 0 .072.444c.6.708-.06 1.703.552 2.411v-.024c.66.708 0 1.74.588 2.472a.42.42 0 0 0 .096.504c.276.407.252.923.468 1.343a.34.34 0 0 0 .108.444 5.211 5.211 0 0 1 .467 1.464l-.06.167.12.145c.66.707-.012 1.74.588 2.47a.424.424 0 0 0 .108.517 8.404 8.404 0 0 1 .444 1.415.226.226 0 0 0 .084.36c.492.564.12 1.368.528 1.956a.32.32 0 0 0 .084.432c.456.588.132 1.38.504 1.991a.26.26 0 0 0 .084.396c.492.492.072 1.284.54 1.8.563.527.168 1.355.575 1.931a.32.32 0 0 0 .084.432c.456.6.144 1.38.504 2.004a.24.24 0 0 0 .072.383c.492.588.168 1.392.516 2.016a.223.223 0 0 0 .084.36c.504.504.084 1.284.54 1.8.564.587.228 1.415.564 2.05l-.06.18.132.133c.648.708-.036 1.727.576 2.435l-.012-.036c.684.672 0 1.692.6 2.388.683.671 0 1.691.6 2.387.647.768.083 1.8.551 2.603a.218.218 0 0 0 .072.36c.636.696-.036 1.716.576 2.424.66.66 0 1.667.588 2.351a1.029 1.029 0 0 1 .3.588h-103.33c.012-.144.036-.288.048-.432.504-.78-.024-1.763.504-2.543ZM357.74 122.36l-.214-.05-.167.142c-.514.504-1.3.071-1.828.53l.012-.014c-.9.81-2.129-.027-3.063.61l-.248-.074-.23.117c-3.421.646-6.876.12-10.31.307-1.17.065-2.37-.256-3.51.248l-.251-.074-.231.124c-.911.686-2.091-.087-3.01.555l.004-.01c-1.16.802-2.57-.037-3.76.574l-.205-.075-.174.131c-.905.718-2.097-.078-3.014.572l.002-.01c-.664.716-1.69.007-2.385.605l.003-.008c-.95.753-2.173.01-3.158.572l-.21-.072-.177.133c-.693.65-1.701-.027-2.406.572h-.007c-.573.548-1.387.212-2.016.551l-.187-.073-.149.134c-.53.54-1.308.15-1.89.5l.037-.03c-.871.958-2.148.05-3.091.672l-.223-.072-.196.126a22.054 22.054 0 0 1-8.315-.03h-.002c-.629-.525-1.299-.009-1.945-.072-1.681-.332-3.282-1.174-5.077-.794a.851.851 0 0 1-.679-.365l-.002.023c-.543-.443-1.345-.006-1.857-.548l-.192-.13-.218.075c-1.395-.64-2.98.222-4.358-.547a.948.948 0 0 0-.946-.05c-8.25-.528-16.508-.077-24.761-.25-1.358-.028-2.751.308-4.076-.267l-.242-.124-.263.07c-1.135-.686-2.526.212-3.642-.589l-.007.004c-.695-.6-1.698.076-2.38-.577l-.025-.007c-.473-.527-1.303-.024-1.757-.607l-.008-.002c-.481-.511-1.338.017-1.767-.64l.013.016c-.51-.462-1.36.053-1.792-.63l.02.017c-.387-.234-.906-.161-1.236-.529l-.024-.01c-.437-.552-1.366.06-1.708-.719l.026.022c-.419-.18-.971-.08-1.231-.59l.023.02c-.398-.218-.965-.106-1.212-.62l.023.021c-.4-.214-.97-.099-1.21-.623l.023.02c-.403-.206-.977-.086-1.206-.628l.025.022a6.877 6.877 0 0 1-1.877-1.062l-.038-.02c-.298-.36-.87-.224-1.141-.632l.007.005c-.335-.309-.95-.16-1.142-.701l.044.044c-.338-.017-.502-.284-.706-.493l-.027-.017c-.3-.35-.912-.199-1.119-.698l.043.042a1.313 1.313 0 0 1-.684-.523l-.021-.014c-.29-.352-.946-.177-1.078-.754l.046.05a.808.808 0 0 1-.705-.552l.032.03a1.834 1.834 0 0 1-.66-.538l-.026-.018c-.535-.477-1.289-.665-1.707-1.296l.041.043a1.203 1.203 0 0 1-.678-.564l.013.013a6.728 6.728 0 0 1-.63-.537l-.04-.03c-.489-.523-1.313-.64-1.643-1.356l.045.049a.754.754 0 0 1-.68-.59l.037.012a1.502 1.502 0 0 1-.557-.419c-.358-.449-.67-.933-1.04-1.372a9.811 9.811 0 0 0-.768-.635 4.214 4.214 0 0 1-.497-.425 4.364 4.364 0 0 0-1.03-.732 1.899 1.899 0 0 1-.488-.37.718.718 0 0 1-.096-.55c.06-.398-.322-.37-.532-.523a3.134 3.134 0 0 1-.562-.442c-1.284-1.562-2.934-2.731-4.35-4.144-.9-.96-1.869-1.857-2.731-2.852a7.474 7.474 0 0 1-.457-.605 6.675 6.675 0 0 0-.773-.81 3.059 3.059 0 0 1-1.06-1.543 1.902 1.902 0 0 0-1.48-1.856 3.748 3.748 0 0 1-1.53-1.28c-2.999-4.326-7.03-7.833-9.812-12.329-.308-.417-.639-.82-.96-1.228a3.063 3.063 0 0 1-.376-.66c-.165-.47-.23-.969-.386-1.442a4.646 4.646 0 0 0-.624-.968c-1.764-2.47-3.35-5.053-4.948-7.623-.579-.93-1.836-2.017-.377-3.284a6.473 6.473 0 0 1 3.139.757 157.566 157.566 0 0 0 32.97 7.407 6.223 6.223 0 0 1 1.011.104c7.724 1.34 15.538 1.79 23.324 2.546 7.903.767 15.84.18 23.742.977 2.74.277 5.752 1.065 8.289-1.017.57-.471 1.116-.695 1.523.182.057.255-.164.665-.008.737.347.158-.133.081.202-.136a1.833 1.833 0 0 1 .893-.121c3.515.12 7.031-.054 10.547 0a15.758 15.758 0 0 0 5.15-.623c6.158.39 12.26-.39 18.363-.932 7.009-.622 13.956-1.763 20.904-2.86a11.213 11.213 0 0 1 4.981.383c13.543 3.929 27.37 3.746 41.27 2.986a214.425 214.425 0 0 0 31.48-4.121 200.286 200.286 0 0 0 17.58-4.425 13.84 13.84 0 0 1 7.288-.533.78.78 0 0 1 .02 1.331l.049-.046a.936.936 0 0 1-.64.638l.043-.043a.82.82 0 0 1-.667.61l.044-.047c-.356.68-1.168.805-1.64 1.343l-.053.046a4.847 4.847 0 0 0-.57.535l-.033.031q-.292.275-.57.564l-.027.029a7.795 7.795 0 0 0-.55.573l-.038.042a3.563 3.563 0 0 0-.542.558l-.05.05a3.605 3.605 0 0 0-.559.54l-.044.04q-.298.266-.587.544l-.02.018a2.74 2.74 0 0 1-.627.562l.017-.017a1.288 1.288 0 0 1-.665.58l.038-.037a.905.905 0 0 1-.659.613l.043-.042a.79.79 0 0 1-.653.628l.045-.045a.831.831 0 0 1-.618.665l.046-.046a.98.98 0 0 1-.624.653l.04-.04a1.16 1.16 0 0 1-.615.65l.033-.035a1.376 1.376 0 0 1-.619.636l.03-.03a1.312 1.312 0 0 1-.643.614l.036-.036a1.095 1.095 0 0 1-.648.62l.04-.04a.984.984 0 0 1-.643.63l.043-.043a.764.764 0 0 1-.687.585l.038-.047a9.99 9.99 0 0 1-2.25 1.944l-.027.024q-.287.294-.6.56l-.005.005a1.717 1.717 0 0 1-.646.568l.028-.028a1.144 1.144 0 0 1-.653.606l.04-.04a.87.87 0 0 1-.667.606l.042-.047a9.802 9.802 0 0 1-2.32 1.892v.002a1.321 1.321 0 0 1-.662.568l.036-.034a1.01 1.01 0 0 1-.647.623l.043-.043a.78.78 0 0 1-.683.59l.04-.05c-.34.713-1.149.846-1.66 1.347l-.028.021a2.222 2.222 0 0 1-.652.54l.027-.026a1.115 1.115 0 0 1-.661.599l.042-.043a.803.803 0 0 1-.677.598l.042-.047a11.863 11.863 0 0 1-2.252 1.938l-.036.026a3.104 3.104 0 0 1-.643.535l.02-.019a1.196 1.196 0 0 1-.663.587l.041-.043a9.88 9.88 0 0 1-2.379 1.837l.016-.01a.954.954 0 0 1-.686.568l.041-.047c-.4.67-1.143.88-1.734 1.293l.008-.004a1.07 1.07 0 0 1-.692.55l.048-.048c-.18.525-.81.365-1.101.72l-.03.02c-.205.204-.369.47-.704.49l.042-.044c-.2.542-.806.4-1.158.686l.015-.01c-.267.432-.839.305-1.162.634l-.018.01a9.422 9.422 0 0 1-1.827 1.142l.017-.012a7.516 7.516 0 0 1-1.78 1.226l.008-.006a9.495 9.495 0 0 1-1.797 1.196l.008-.006a10.17 10.17 0 0 1-1.787 1.203l.003-.003a10.042 10.042 0 0 1-1.8 1.188l.012-.007c-.26.415-.84.27-1.123.645l-.05.027c-.22.183-.378.46-.716.456l.038-.04c-.199.561-.797.422-1.175.67l.023-.017c-.232.475-.827.334-1.14.67l-.02.013c-.195.226-.375.471-.712.492l.042-.046c-.18.563-.798.412-1.145.703l.012-.009a5.111 5.111 0 0 1-1.847 1.147l.026-.02c-.216.515-.817.376-1.156.68l.008-.005c-.28.41-.845.287-1.167.62l-.019.01c-.302.37-.848.254-1.169.586l-.023.01c-.31.369-.849.265-1.187.575l-.008.003c-.296.39-.846.277-1.178.596l-.012.007c-.294.382-.846.262-1.164.598l-.025.012c-.31.364-.848.257-1.18.575l-.015.006c-.321.382-.847.302-1.23.545l.02-.015c-.391.682-1.279.11-1.714.678l-.045.018c-.332.338-.855.25-1.206.543l.001-.003c-.314.408-.844.33-1.24.55l.023-.017c-.379.712-1.277.13-1.717.689l-.035.013c-.347.35-.85.3-1.26.49l.02-.02c-.368.744-1.274.156-1.725.696l-.02.007c-.332.375-.846.311-1.249.516l.022-.019c-.407.723-1.278.182-1.778.652l.013-.014c-.437.651-1.287.135-1.78.629l.003-.006c-.467.601-1.29.123-1.8.594l.008-.012c-.475.617-1.285.164-1.825.572l.019-.022c-.497.69-1.359.24-1.953.626Z" class="color2d4490 svgShape"></path><path fill="#172554" d="M442.763 65.397c-2.963-.567-5.668.57-8.405 1.35a220.956 220.956 0 0 1-29.504 6.357c-5.876.834-11.77 1.298-17.672 1.829-6.344.57-12.667.44-18.997.426a79.568 79.568 0 0 1-24.52-3.708c-2.2-.714-4.117.12-6.108.374-5.576.713-11.133 1.567-16.716 2.265-6.185.773-12.43.683-18.59 1.605a1.916 1.916 0 0 1-1.947-1c-1.806-3.358-1.451-7.087-1.572-10.657-.285-8.397-1.19-16.754-1.488-25.164a6.34 6.34 0 0 0-.334 2.94c-.015 8.815.02 17.629-.026 26.442-.014 2.564-.01 5.162-1.345 7.503-3.382.087-6.765.163-10.147.272-.622.02-.76-.503-1.105-.8-1.01-1.202-.875-2.777-1.36-4.151a13.535 13.535 0 0 1-.249-2.983 11.103 11.103 0 0 0-.418-3.922 37.77 37.77 0 0 1-.205-5.183c.552-4.203-1.32-8.36-.25-12.57.784-1.409 1.869-.267 2.805-.298 1.042-.034 2.078.276 3.134.18a9.242 9.242 0 0 1 2.868.197c1.203.085 2.395.58 3.613.093.822-3.54-.229-7.179.566-10.72l.01-.025c.385-.253.203-.928.775-1.042l-.07.059c.89-.897 1.878-.475 2.854-.208l.05.029a2.974 2.974 0 0 1 1.48 2.986c.007 2.07-.303 4.16.213 6.214a6.41 6.41 0 0 0 .24 3.297c1.04.744 2.315-.053 3.383.513a4.52 4.52 0 0 0 2.118.148c1.034.493 2.207-.012 3.245.453a6.32 6.32 0 0 0 2.72.138 178.847 178.847 0 0 0 20.76.008 20.241 20.241 0 0 0 4.552-.153c1.597-.555 3.312.179 4.903-.446 4.747.02 9.295-1.29 13.918-2.094a16.263 16.263 0 0 1 3.195-.396c.687.996-.19 1.828-.286 2.74-.239.564-.674 1.063-.601 1.714a.37.37 0 0 0-.028.467 3.79 3.79 0 0 1 .058-.549c-.062-.67.508-1.092.625-1.685.502-1.088.302-2.469 1.391-3.307.454-.888.61-2.587 1.814-2.136 1.249.467-.485 1.617-.175 2.63a74.804 74.804 0 0 0 20.118 5.543c13.977 2.107 27.987 1.718 42.011.657.785-.06 1.58 0 2.37.003a.396.396 0 0 1 .23.383c-.018.159-.05.238-.095.238a20.051 20.051 0 0 0-1.177 2.388c-.696.784-1.479 1.486-2.165 2.28a2.91 2.91 0 0 1-.385.687c-.489.786-1.21 1.395-1.672 2.201a12.6 12.6 0 0 1-2.332 2.58 16.894 16.894 0 0 1-1.928 2.808 8.46 8.46 0 0 1-.484.579c-.26.271-.395.637-.664.903a5.295 5.295 0 0 0-1.323 1.777 3.493 3.493 0 0 1-.404.586 1.254 1.254 0 0 0-.272.333 5.58 5.58 0 0 0 .528-.539 5.861 5.861 0 0 1 1.192-1.806 3.853 3.853 0 0 0 .85-1.145c.17-.175.336-.353.495-.538.482-.866 1.415-1.416 1.69-2.425a5.667 5.667 0 0 1 .75-.884 9.736 9.736 0 0 0 1.811-2.082c.472-.792 1.183-1.405 1.648-2.2.227-.306.431-.627.634-.948.579-.633 1.198-1.229 1.805-1.835a8.708 8.708 0 0 0 1.123-2.226c.36-.332.454-.838.781-1.191.698-.629 1.02-1.714 2.122-1.855.163.213.396.43.362.485-2.403 3.984.327 6.768 2.526 9.359a14.45 14.45 0 0 0 6.41 4.105c1.857.635 3.517 1.212 4.981-.751.592-.793 1.183-.423 1.436.457-.12.262-.339.46-.466.717l-.065.091c-.434.175-.236.885-.803.947l.031-.035c-.123.519-.46.477-.84.321Z" class="color222628 svgShape"></path><path fill="#172554" d="M287.778 46.699a7.29 7.29 0 0 0-1.468.107 5.051 5.051 0 0 1-4.082-.573c-.897 4.37.526 8.677.352 13.026.103 2.057-.242 4.133.251 6.173a17.076 17.076 0 0 0 .284 3.477c.136.823-.034 1.666.165 2.485a3.651 3.651 0 0 1-.255 2.938c.026 1.562-.588 2.277-2.298 2.198-8.975-.413-17.965-.353-26.937-1.008-3.835-.28-7.7-.225-11.523-.74-5.36-.722-10.832-.61-16.084-2.143-1.376-1.764-3.074-3.257-4.32-5.128a25.416 25.416 0 0 1-1.87-2.46q-.373-.441-.737-.891c-.906-1.438-2.166-2.6-3.131-3.991-1.056-1.9-2.685-3.376-3.855-5.191-.313-.445-.607-.9-.9-1.36a13.448 13.448 0 0 1-1.654-2.933 3.206 3.206 0 0 1-.11-.91c.158-1.97 1.473-2.231 3.069-2.08.956.08 1.939-.195 2.87.217l1.099.127c.961.573 2.107-.059 3.075.471l1.122.117c.95.584 2.082-.035 3.046.457a4.64 4.64 0 0 0 2.11.146c1.639.612 3.397-.093 5.041.458l2.765.148a122.307 122.307 0 0 0 17.16-.001 10.948 10.948 0 0 0 3.34-.146c1.216-.51 2.565.1 3.777-.445l1.584-.147c.834-.42 1.806-.03 2.64-.45l1.53-.15c.932-.528 2.063.16 2.974-.49l1.2-.124c.58-.343 1.312-.029 1.875-.438l1.103-.148c.55-.375 1.292.002 1.817-.467l.562-.096c.536-.43 1.3-.024 1.824-.498l.559-.095c.547-.428 1.31-.042 1.85-.492a.421.421 0 0 0 .532-.099c.432-.472 1.212.064 1.596-.549a2.564 2.564 0 0 0 .19-.375c.02-.061-.032-.146-.05-.22a.376.376 0 0 1-.107-.403q.076-.189.143-.189l.148-.137-.062-.191c.246-.711.624-.653 1.071-.183l-.037-.05c.452.376.426.95.601 1.442l-.065.19.163.12c.298.365.8.257 1.152.5l1.057.164c.589.374 1.327.09 1.922.435l1.687.156a.296.296 0 0 1 .239.439ZM224.56 192.112a.25.25 0 0 0-.015-.394c.823-.927 1.252-.138 1.738.4l.015.022a2.15 2.15 0 0 1 .523.679l-.03-.035a.804.804 0 0 1 .555.705l-.034-.034a.725.725 0 0 1 .68.588l-.037-.036a1.113 1.113 0 0 1 .676.56l.014.01c1.667-.213.755-1.283.689-2.072l-.035-.87c.584-.732-.058-1.747.57-2.47l.001-.003c.35-.32.24-.87.598-1.186v-.002c.56-.456-.005-1.347.681-1.752l-.04.05a1.37 1.37 0 0 1 .595-.65l-.017.015a1.34 1.34 0 0 1 .636-.596l-.024.024a1.528 1.528 0 0 1 .576-.645l-.006.008a2.058 2.058 0 0 1 .615-.599l-.015.014c.18-.257.364-.51.725-.514l-.038.04a.64.64 0 0 1 .634-.638l-.042.035a.793.793 0 0 1 .633-.686.362.362 0 0 0 .435-.276c.367-.33.75-.643 1.086-1.006l.104-.068a1.735 1.735 0 0 1 .665-.198.966.966 0 0 1 .788.558.873.873 0 0 1 .052.5c-.194.065-.156.153.067.07.369-.14-.281-.162.13-.177a13.03 13.03 0 0 0 1.25-1.561 6.058 6.058 0 0 1 .434-.634 17.247 17.247 0 0 0 1.771-2.193 56.014 56.014 0 0 1 3.405-5.866 6.79 6.79 0 0 1 8.115-2.947l.131.156.198-.05c.695.123 1.408.756 2.07-.07l.003-.006c.352-.317.24-.871.604-1.181.462-.553.668-1.298 1.295-1.729l-.041.044a1.198 1.198 0 0 1 .57-.68l-.01.016c.429-.578.59-1.367 1.335-1.695l-.053.054c.09-.589.781-.4 1.025-.79l.038-.026q.303-.275.61-.545l.005-.004a1.461 1.461 0 0 1 .665-.55l-.035.033c.201-.464.827-.293 1.061-.708l.068-.066a6.186 6.186 0 0 0 .621-.485l.008-.004c.297-.381.846-.266 1.171-.592l.02-.008c.581-.522 1.39-.2 2.02-.543l.193.079.142-.154a3.757 3.757 0 0 1 2.968-.05.441.441 0 0 0 .517.1q.324.215.661.408a.234.234 0 0 0 .324.223.937.937 0 0 1 .835.615l-.044-.039a.888.888 0 0 1 .603.662l-.052-.056c.773.327.136 1.283.751 1.68l.011.03a1.81 1.81 0 0 1 .253 1.423c-.537 2.698.446 4.065 3.29 3.878l.103.047c.24.422.787.265 1.087.576l.06.035a4.319 4.319 0 0 1 1.13 1.197l.003.006c.497.6.195 1.41.543 2.05l-.013.063c-.076.312-.247.63.052.92a.436.436 0 0 0 .047.53 1.45 1.45 0 0 1-.05 1.788l-.14.144.092.178c-.33.645-.045 1.442-.508 2.055l-.153.16.064.211c-.222.442-.075 1.087-.715 1.3l.036-.034a9.188 9.188 0 0 0-.182 1.682 1.522 1.522 0 0 1-1.426.742c-2.199-.146-4.404-1.462-6.592.038a9.336 9.336 0 0 0-2.805 2.577 4.578 4.578 0 0 0-.895 1.167c-.081.242-.168.478-.243.721a5.267 5.267 0 0 1-1.804 3.126c-.77.851-1.774 1.84-1.307 3.275a1.39 1.39 0 0 0 1.596.447c.923-.273 1.897-1.267 2.708.17.347 1.217-.693 1.54-1.353 2.11a3.182 3.182 0 0 0-1.146 1.417c-.255.599-.421 1.286-1.27 1.306-1.729-1.063-2.11-3.14-3.419-4.52-1.016-1.486-2.687-1.778-4.225-2.306a3.277 3.277 0 0 0-2.338-.105c-.351.119-.71.217-1.067.318a4.779 4.779 0 0 0-1.893 1.004 10.817 10.817 0 0 0-2.212 2.577 4.078 4.078 0 0 1-.817.87c-1.94 1.079-.507 2.472-.342 3.741.244.728.319 1.503.615 2.216a5.663 5.663 0 0 0 .788 1.303c1.475 2.153 2.81 4.427 5.206 5.745a2.281 2.281 0 0 1 .453 1.589 5.32 5.32 0 0 1-.365.799c-1.807 3.95-2.825 4.152-6.145 1.202-1.954-1.736-4.158-1.064-4.803 1.545a9.366 9.366 0 0 0 .118 4.38c.085.224.163.454.251.674.055.1.103.207.157.306.124.18.244.369.371.547.07.08.134.167.203.248.143.148.281.305.423.455.076.065.148.139.224.204a4.619 4.619 0 0 0 .77.457c.188.074.369.16.552.243.286.104.575.195.869.28a2.894 2.894 0 0 1 .574.23c.32.395.697.115 1.06.089a.914.914 0 0 1 .415.528 1.105 1.105 0 0 1-.316.992 4.025 4.025 0 0 1-1.446.124 11.835 11.835 0 0 1-1.338-.42 5.348 5.348 0 0 0-.64-.192c-.295-.133-.54-.352-.828-.5a3.501 3.501 0 0 1-.59-.201 5.023 5.023 0 0 1-.468-.396l-.216-.21a12.247 12.247 0 0 0-.415-.422l-.209-.204a3.974 3.974 0 0 0-.415-.399l-.243-.152a8.318 8.318 0 0 0-.789-.349 1.45 1.45 0 0 1-.722-.459l-.013.005c-.455-.521-1.363.075-1.717-.696l-.113.111.12-.102a13.165 13.165 0 0 1-2.41-1.171l.01.005c-.4-.207-.945-.11-1.222-.578l.026.022a2.68 2.68 0 0 1-.657-.505l-.06-.033c-.282-.372-.857-.226-1.119-.633l.004.002c-.338-.304-.937-.164-1.152-.677l.04.04a.856.856 0 0 1-.632-.617l.026.023c-.314-.058-.484-.304-.68-.516l-.021-.016a4.322 4.322 0 0 1-.565-.61l.005.004a1.382 1.382 0 0 1-.574-.647l.025.027a.914.914 0 0 1-.585-.677l.053.054c-.54-.204-.401-.814-.693-1.167l.016.024c-.758-.604-.795-1.59-1.249-2.356v.001a3.76 3.76 0 0 1-.52-1.476l.08-.168-.133-.13a.805.805 0 0 1-.05-1.193l-.02-.603a1.653 1.653 0 0 1-.01-1.775 2.618 2.618 0 0 0 .09-1.68c.263-.39.226-.884.447-1.29a.362.362 0 0 0 .167-.473c.426-.72-.32-.993-.555-1.461l.022.023c-.337-.027-.504-.28-.685-.515l-.012-.012c-.8-.491-1.586-.994-1.723-2.044l.046-.19-.159-.113a4.735 4.735 0 0 1-.485-1.473l-.06-.902c-.428-.419.063-.81.036-1.217ZM302.817 266.562a91.102 91.102 0 0 1 .426-15.521 65.722 65.722 0 0 0 .154-8.24c-.081-4.61 1.026-9.145.85-13.76.037-.434-.113-.904.225-1.284-.374.362-.197.835-.244 1.265-.116 4.429-.189 8.86-1.444 13.158-.531 1.896-1.079 3.787-1.591 5.689-.965 3.58-3.677 5.446-6.654 7.056a3.586 3.586 0 0 1-2.57.285c-4.811-1.16-8.584-3.635-10.319-8.628a21.48 21.48 0 0 1-1.203-8.153c.117-2.458-.146-4.914.4-7.38.358-1.625 1.116-2.148 2.593-2.028.484.04.973.02 1.46.039 1.441.053 2.092.84 2.078 2.281-.03 2.97-.013 5.94-.068 8.91a7.926 7.926 0 0 0 2.412 5.852c2.007 2.053 4.002 1.833 5.59-.55a11.9 11.9 0 0 0 1.91-4.937 52.733 52.733 0 0 0 .643-11.514.397.397 0 0 1-.14-.42q.07-.21.14-.21v-1.198c-.624-1.148.112-2.483-.487-3.634l.014.016a1.097 1.097 0 0 1-.599-.738.28.28 0 0 0-.097-.409 5.136 5.136 0 0 1-.474-1.47l.017-.208-.179-.104c-.23-.403-.83-.23-1.03-.681l.005.006a1.683 1.683 0 0 1-1.165-1.34c.036-.728.273-1.474-.192-2.155a2.413 2.413 0 0 1-.511-2.97.235.235 0 0 0 .128-.372c.035-.267.262-.555-.085-.779l-.127-.174-.209.041a.867.867 0 0 1-.763-.737 5.886 5.886 0 0 0 .002-2.483c.188-.478.109-1.083.645-1.394a.429.429 0 0 0 .463-.127c.882-.443 1.825-.136 2.733-.23a1.081 1.081 0 0 0 .974-.417c.115-.349.084-.732.231-1.074a.744.744 0 0 1 .675-.103 4.685 4.685 0 0 1 .835.666 6.011 6.011 0 0 0 .621.365c.757.173 1.485.286 1.846-.66a10.443 10.443 0 0 0 .07-2.116c.427-2.009-1.048-4.435 1.285-6.017.962 1.758-.124 3.759.636 5.54l-.017-.032a2.037 2.037 0 0 1 .617.583l.026.013c.32.323.84.217 1.153.553l.065.022c.285.367.776.243 1.115.482l.588.13c.323.332.816.226 1.171.473l.55.136c.35.31.872.197 1.217.517a.249.249 0 0 0 .379.124 1.721 1.721 0 0 1 .789.435.261.261 0 0 0 .378.16.95.95 0 0 1 .752.613l-.047-.05c.468.257.351.84.645 1.194l-.015-.032c.597.485.13 1.33.607 1.856a.421.421 0 0 0 .146.519c.218.361.118.858.479 1.159l.006.018a4.58 4.58 0 0 1 .495 1.472l-.058.19.152.125c.334.36.268.88.495 1.283l-.025-.041c.46.196.287.832.711 1.052l.054.077a3.454 3.454 0 0 0 .495.603l.015.019a6.193 6.193 0 0 1 .558.608 2.21 2.21 0 0 1 .582.613l-.012-.013a1.3 1.3 0 0 1 .56.668l-.034-.039a.739.739 0 0 1 .554.697l-.032-.032a.58.58 0 0 1 .603.641l-.033-.03c.557.045.363.767.802.92l.078.105a1.949 1.949 0 0 0 .468.595l.017.027c.19.214.437.386.507.69l-.038-.044c.469.19.298.829.716 1.055l.04.066c.131.25.388.415.461.704l-.036-.056c.67.46.176 1.332.64 1.865a.366.366 0 0 0 .098.481 6.394 6.394 0 0 1 .454 1.438l-.057.203.153.142c.497.5.031 1.31.558 1.801l-.003-.008c.518.535.12 1.345.554 1.905a.352.352 0 0 0 .073.473c.536.778.013 1.77.498 2.558a.276.276 0 0 0 .11.421q.22.472.43.949c1.433 2.498 1.033 5.353 1.448 8.041.283 1.831.279 3.715.515 5.572.431 3.385-.042 4.029-3.293 5.034-5.167 1.41-10.482 2.082-15.712 3.193-1.356.288-2.714.466-3.338 1.98-.56 1.19-.282 2.475-.437 3.706-.12.96.234 2.249-1.3 2.464ZM232.862 324.896c4.172 1.81 7.473-.079 10.602-2.548a16.858 16.858 0 0 0 3.559-4.352c.423-.661.747-1.525 1.754-1.25a1.984 1.984 0 0 1 1.28 1.849 10.122 10.122 0 0 1-.278 4.112 18.397 18.397 0 0 0-.899 4.943 2.43 2.43 0 0 0 1.888 2.624 26.444 26.444 0 0 0 7.865 1.31c1.784-.014 3.568-.04 5.352-.052.594-.004 1.25-.043 1.456.696a1.625 1.625 0 0 1-.606 1.577 5.162 5.162 0 0 1-2.704 1.13c-1.902.501-3.854.807-5.777 1.229a1.851 1.851 0 0 0-1.681 1.162 17.455 17.455 0 0 0 6.05-.064c1.86-.41 3.755-.14 5.585-.68 1.052-.31 1.18.438.871 1.219a3.335 3.335 0 0 1-2.264 1.785 23.659 23.659 0 0 1-5.732 1.443 9.082 9.082 0 0 0-3.08.894c2.43.462 4.788-.567 7.186-.257.897.116 2.32-.659 2.557.641.199 1.092-1.228 1.419-2.114 1.741-3.142 1.145-6.329 2.18-9.48 3.291-2.529.893-5.489.602-8.227-.023a97.72 97.72 0 0 1-15.574-4.776 9.194 9.194 0 0 0-1.134-.31q-.355.547-.566-.07l-.02-.002c-.383-.233-.885-.169-1.23-.495l-.07-.023c-.437-.568-1.276-.036-1.706-.624l-.019-.006c-.47-.512-1.335.034-1.74-.65l.002.005c-.39-.233-.902-.152-1.253-.487l-.125-.158-.196.052c-.491-.152-1.044-.147-1.436-.556h-.004c-.461-.51-1.36.076-1.72-.685l-.005.002c-.42-.165-.915-.11-1.28-.438l-.16-.157-.219.05a3.888 3.888 0 0 1-1.383-.515l-.05-.017c-.458-.54-1.294-.02-1.732-.617l-.01-.002c-.477-.504-1.34.036-1.75-.647l.005.005c-.385-.232-.919-.142-1.22-.56l-.002.001a6.092 6.092 0 0 1-2.383-1.183l.002-.003a.872.872 0 0 1-.287-.774 1.771 1.771 0 0 1 .856-.945 3.624 3.624 0 0 0 1.84-1.831c1.845-4.652 4.587-8.909 6.021-13.74a1.455 1.455 0 0 1 .96-.827 3.123 3.123 0 0 1 2.167.83 88.678 88.678 0 0 0 12.258 7.733Z" class="color222628 svgShape"></path><path fill="#172554" d="M212.759 47.859c-1.644.052-2.749.65-2.576 2.543-.49.235-.733-.201-1.067-.391a5.794 5.794 0 0 0 .72 1.212c.584.848 1.132 1.723 1.775 2.533.301.431.607.858.88 1.308 1.203 1.783 2.666 3.373 3.84 5.174.96 1.38 2.145 2.59 3.02 4.032a15.148 15.148 0 0 0 1.151.993 4.681 4.681 0 0 0 1.435 2.24c1.07 1.874 3.074 3.051 3.843 5.15-4.523-.152-8.904-1.251-13.314-2.09a116.97 116.97 0 0 1-22.922-6.526 1.763 1.763 0 0 0-1.096.618c-1.736 1.106-3.632.89-5.473.517-8.562-1.735-16.3-5.427-23.598-10.12a5.903 5.903 0 0 1-1.956-1.796c-.648-1.066-.103-1.415.939-1.392 2.777.128 5.563-.264 8.327.212a6.038 6.038 0 0 0 2.752.136 32.736 32.736 0 0 0 8.792.005 7.141 7.141 0 0 0 2.787-.145c.843-.409 1.82-.034 2.66-.454l1.51-.137c.951-.526 2.089.128 3.028-.477l1.143-.121c.764-.464 1.713.056 2.468-.462l1.11-.152c.53-.378 1.274.04 1.767-.477l.613-.102c.516-.409 1.275.036 1.754-.5l.631-.109a13.854 13.854 0 0 1 1.38-.423l1.006-.189c.359-.225.846-.127 1.162-.46l.042-.015c.38-.366.914-.333 1.362-.525a.276.276 0 0 0 .406-.148 1.707 1.707 0 0 1 .803-.443.262.262 0 0 0 .377-.195.345.345 0 0 0 .175-.36q-.048-.203-.113-.203l.025.041c-.463-.374-.438-.95-.597-1.449a2.77 2.77 0 0 0 .11-.446c.007-.064-.078-.136-.122-.204.562-.744 1.11-.771 1.64.035a.229.229 0 0 0 .197.33q.205.331.425.653l-.023-.042c.433.282.32.852.633 1.197l-.005-.008c.476.625 1.22.321 1.818.522l.933.114c.644.31 1.395.114 2.038.43l1.177.13.23.158Z" class="color222628 svgShape"></path><path fill="#1d4ed8" d="M157.596 52.016c.183 1.744 1.821 2.216 2.921 2.891 7 4.298 14.338 7.883 22.476 9.509 2.002.4 4.069.759 5.843-.784 1 4.056 4.112 6.915 5.987 10.48.542 1.032 1.052 2.103 1.692 3.09l-.036-.052c.323.432.585.906.896 1.347 2.644 4.722 6.92 8.156 9.926 12.588.495.451.668 1.46 1.702.982 1.819-.221 1.84 1 1.811 2.258-.59 1.736 1.515 1.76 1.849 2.91.845.826 1.685 1.658 2.505 2.51 1.665 1.714 3.51 3.25 5.047 5.09a3.442 3.442 0 0 1 .719.944l-.028-.027c.549.488 1.34.614 1.815 1.212l-.03-.025a2.115 2.115 0 0 0 1.34.609l1.057 1.778a.664.664 0 0 1-1.127-.094l.018.017c-.39-.234-.933-.142-1.228-.577l.012.009c-.367-.27-.895-.184-1.217-.553l-.025-.01c-.467-.531-1.324.002-1.751-.64l.016.01c-.367-.272-.912-.175-1.213-.584l.005.004c-.35-.298-.904-.19-1.195-.603l.005.005c-.353-.291-.894-.192-1.2-.579l-.012-.005c-.338-.312-.867-.212-1.19-.557l-.038-.017c-.305-.353-.84-.236-1.156-.565l-.05-.023c-.29-.37-.837-.24-1.138-.586l-.037-.018c-.304-.353-.853-.229-1.15-.593l-.025-.012c-.319-.335-.865-.219-1.167-.587l-.022-.011c-.32-.332-.87-.215-1.168-.593l-.013-.008c-.326-.326-.9-.199-1.164-.637l.017.011c-.358-.28-.957-.142-1.168-.676l.043.041c-.326-.022-.488-.29-.706-.474l-.048-.026c-.281-.376-.871-.228-1.118-.66l.017.01a11.891 11.891 0 0 1-1.82-1.141l-.025-.014c-.312-.341-.894-.206-1.148-.65l.02.013a5.986 5.986 0 0 1-1.796-1.218l.032.032a1.762 1.762 0 0 1-.663-.534l-.028-.02c-.28-.36-.94-.183-1.068-.757l.044.05a.837.837 0 0 1-.71-.54l.025.025a2.896 2.896 0 0 1-.655-.516l-.05-.033c-.266-.384-.89-.221-1.086-.71l.04.038c-.308-.062-.476-.311-.684-.508l-.036-.023c-.287-.363-.904-.207-1.106-.703l.041.04c-.31-.058-.48-.309-.686-.508l-.033-.021c-.286-.362-.914-.2-1.097-.72l.044.045c-.331-.039-.5-.295-.695-.517l-.018-.012c-.301-.342-.94-.178-1.1-.73l.046.048a.947.947 0 0 1-.704-.54l.02.018a6.639 6.639 0 0 1-.643-.52l-.053-.036c-.25-.39-.91-.212-1.048-.757l.047.05a.903.903 0 0 1-.697-.56l.028.027a2.126 2.126 0 0 1-.651-.543l-.027-.02c-.531-.48-1.29-.664-1.703-1.3l.041.044a1.16 1.16 0 0 1-.678-.568l.017.017a3.128 3.128 0 0 1-.631-.55l-.029-.023a11.69 11.69 0 0 1-2.27-1.927l.046.048a.818.818 0 0 1-.673-.602l.04.04a1.111 1.111 0 0 1-.66-.6l.03.029a1.576 1.576 0 0 1-.642-.585l.007.006a5.115 5.115 0 0 1-.614-.563l-.022-.02a7.859 7.859 0 0 0-.588-.531l-.053-.043c-.461-.548-1.304-.646-1.616-1.37l.045.05a.691.691 0 0 1-.666-.618l.05.048a.753.753 0 0 1-.647-.641l.05.047a.755.755 0 0 1-.644-.644l.05.048a.712.712 0 0 1-.629-.66l.052.05a43.464 43.464 0 0 1-3.747-4.013l-.041-.046a4.2 4.2 0 0 0-.542-.568l-.032-.034q-.272-.298-.557-.584l-.017-.019q-.3-.285-.572-.596l-.005-.006a2.943 2.943 0 0 1-.584-.61l.009.008a1.773 1.773 0 0 1-.594-.634l.028.028a1.192 1.192 0 0 1-.594-.669l.045.046a.792.792 0 0 1-.593-.692l.06.054c-.557-.109-.37-.798-.79-1.013l-.048-.064a4.43 4.43 0 0 0-.517-.602l-.01-.014a2.414 2.414 0 0 1-.558-.65l.028.03a1.055 1.055 0 0 1-.577-.69l.053.05c-.656-.411-.862-1.16-1.303-1.734l.004.006a1.317 1.317 0 0 1-.553-.69l.05.048c-.63-.433-.85-1.17-1.29-1.744l.003.005a1.227 1.227 0 0 1-.54-.706l.058.06c-.522-.183-.36-.823-.74-1.101l-.015-.023a2.056 2.056 0 0 1-.522-.687l.044.047c-.466-.204-.297-.837-.722-1.07l-.037-.064c-.138-.243-.372-.414-.499-.665l.025.028a1.016 1.016 0 0 1-.557-.705l.052.05c-.678-.392-.868-1.157-1.318-1.723l.006.01c-.385-.284-.248-.86-.639-1.14l-.012-.03c-.173-.234-.45-.4-.477-.729l.051.076c-.753-2.084-.604-2.413.974-2.16l-.094-.07c.53.114.347.78.762.983a.337.337 0 0 0 .48.209l.386.248ZM324.04 254.569c3.073-1.064 3.221-1.374 2.846-4.48-.427-3.53-.735-7.072-1.122-10.605-.118-1.075-.327-2.14-.494-3.21q.242-.351.464.013l-.017-.03a1.323 1.323 0 0 1 .606.656l-.045-.047a.98.98 0 0 1 .62.667l-.057-.053c.498.144.31.82.77.994l.081.105a1.57 1.57 0 0 0 .478.584l.02.031a2.722 2.722 0 0 1 .525.68l-.04-.047c.451.238.302.847.693 1.122l.016.03a3.416 3.416 0 0 1 .528.672l-.033-.043a1.058 1.058 0 0 1 .593.858.218.218 0 0 0 .169.314q.232.323.472.641l-.025-.032c.415.257.264.855.672 1.116l.022.042c.157.24.418.41.494.707l-.048-.057c.481.241.35.842.684 1.169l-.005-.009c.378.278.23.86.645 1.117l.026.049c.148.243.399.413.498.692l-.042-.049c.456.25.32.848.68 1.154l.005.008a1.333 1.333 0 0 1 .52.857.24.24 0 0 0 .162.339 2.442 2.442 0 0 1 .45.764.341.341 0 0 0 .162.429 2.553 2.553 0 0 1 .433.762.345.345 0 0 0 .167.43 3.066 3.066 0 0 1 .433.747.366.366 0 0 0 .17.443q.218.33.439.658l-.033-.044c.44.255.301.851.674 1.146l.01.017a1.407 1.407 0 0 1 .508.86.234.234 0 0 0 .154.34 1.927 1.927 0 0 1 .449.798.287.287 0 0 0 .148.392 1.739 1.739 0 0 1 .442.83.245.245 0 0 0 .134.36c.298.324.153.865.555 1.139l.016.038c.304.339.197.875.566 1.183l.006.014c.332.34.243.874.566 1.218l-.007-.015c.378.321.288.867.59 1.225l-.016-.028c.418.353.352.915.58 1.349a.33.33 0 0 0 .13.43c.281.359.194.87.507 1.216l-.01-.023c.394.375.35.928.56 1.378a.291.291 0 0 0 .12.405c.3.35.203.873.524 1.214l-.008-.019c.38.335.311.868.56 1.26l-.028-.048a1.04 1.04 0 0 1-.037 1.695l.07-.086a.484.484 0 0 1-.736.238c-5.44-.386-10.89-.581-16.337-.814a5.308 5.308 0 0 1-1.343-.257 4.668 4.668 0 0 1-.86-.327 2.235 2.235 0 0 1-.724-.583 3.284 3.284 0 0 1-.664-1.741c.49-4.008-.076-8.065.527-12.064.19-1.262-.683-1.977-1.209-2.884Z" class="color2d4490 svgShape"></path><path fill="#1e40af" d="M239.378 238.003a.213.213 0 0 0 .096-.346c.191-.475.12-1.07.635-1.398l-.053.066c.073-.307.33-.479.514-.705l.013-.02c.383-.274.221-.92.747-1.098l-.064.063a.988.988 0 0 1 .602-.685l-.04.042a1.333 1.333 0 0 1 .623-.645l-.038.038a1.281 1.281 0 0 1 .651-.62l-.04.04a1.319 1.319 0 0 1 .612-.652l-.033.035a1.358 1.358 0 0 1 .649-.619l-.043.04a1.147 1.147 0 0 1 .652-.625l-.045.044a1.05 1.05 0 0 1 .643-.637l-.044.044a.958.958 0 0 1 .657-.626l-.055.059c.191-.51.824-.352 1.104-.727l.027-.018a13.405 13.405 0 0 0 1.714-1.189l.068-.035c.237-.155.4-.42.707-.47l-.05.046c.186-.494.823-.325 1.071-.728l.064-.037c.33-.294.856-.176 1.15-.547l.05-.02c.503-.493 1.29-.055 1.795-.546h.003c.381-.392.93-.366 1.393-.552l.961-.122a1.708 1.708 0 0 1 1.297-.371 2.697 2.697 0 0 1 1.846 1.922c.412 1.442.953 2.874.461 4.412l-.07.085c-.917 1.798-.77 3.86-1.424 5.723-1.442.353-2.924.53-4.353.945a7.997 7.997 0 0 0-1.178.33c-.873.385-1.895.343-2.693.945-.432.052-.831.231-1.256.315q-2.48.391-4.923.963c-1.638-.063-3.664 1.434-4.666-1.165a1.39 1.39 0 0 1 .263-.954Z" class="color2e4590 svgShape"></path><path fill="#172554" d="M295.649 128.394c2.056-1.434 3.741.147 5.552.705.357 2.823-.238 5.684.328 8.499l-.003.097a1.35 1.35 0 0 0 0 1.072l.001.116a.927.927 0 0 0 .03.954 19.763 19.763 0 0 0 .026 5.238q.237.204.155.402-.082.198-.163.198a10.667 10.667 0 0 0 .098 3.583c.482 4.645.07 9.305.219 13.955a10.321 10.321 0 0 0 .228 3.534l.013.816a3.228 3.228 0 0 0-.25 1.654c.001.45.002.898 0 1.35.001.65.002 1.298 0 1.95.105 2.864-.185 5.73.223 8.589.12.847.196 1.835-.942 2.204a1.962 1.962 0 0 1-.854-1.35c-.404-4.842.306-9.719-.428-14.547-.409-10.25-1.099-20.495-.879-30.769.055-2.592-.004-2.593-1.074-4.715-.462 3.17.624 6.116-.127 9.006-.165 4.435 0 8.868-.092 13.298-.026 1.231.268 2.623-1.08 3.452a.707.707 0 0 1-.577-.806c-.318-5.756.002-11.532-.548-17.28a106.84 106.84 0 0 1 .144-11.205Z" class="color222628 svgShape"></path><path fill="#303234" d="M266.241 194.586c.237-.883 1.894-.5 1.632-1.828l.367-.174c1.145.306 1.587 1.425 2.419 2.094 1.559 1.254 3.117 2.5 5.328 1.688 2.897-.714 3.818-2.94 3.918-5.524.11-2.84-.123-5.681-1.854-8.15-.378-.54-.867-1.104-.494-1.866a1.316 1.316 0 0 0 1.218-.72.339.339 0 0 1 .541.084l.027.035q.276.308.537.627l-.007-.008a1.247 1.247 0 0 1 .548.692l-.05-.055c.518.239.4.825.658 1.206l-.028-.039c.485.294.374.884.64 1.287l.159 1.066c.22.412.196.906.44 1.31a2.416 2.416 0 0 0 .128 1.667 10.753 10.753 0 0 1-.137 5.327l.016-.032c-.288.364-.201.883-.513 1.238a.209.209 0 0 0-.124.338 4.262 4.262 0 0 1-1.188 2.004l.031-.036a1.321 1.321 0 0 1-.614.629l.021-.02c-.596.757-1.563.809-2.338 1.227l-.03.008c-.392.423-.913.278-1.39.319-.777-.062-.607 1.036-1.307 1.07a1.545 1.545 0 0 1-.678-.253 3.708 3.708 0 0 0-1.023-.406c-1.728-.412-1.966 2.642-3.612 1.749-1.408-.765-.38-2.757-1.273-4.012-.624-.877-1.413-1.618-1.968-2.542Z" class="color303234 svgShape"></path><path fill="#323437" d="M275.32 221.87c.38 1.618 1.399 3.018 1.603 4.696-.297.485-.734.401-1.177.292-1.372-1.088-1.872-2.728-2.494-4.235-.65-1.575-1.475-1.79-2.932-1.098a10.22 10.22 0 0 1-7.125.852 1.113 1.113 0 0 1-.724-1.014c.66-1.39 2.066-1.417 3.276-1.712 6.757-1.644 8.516-3.538 9.466-10.316a26.56 26.56 0 0 0 .358-3.242 7.541 7.541 0 0 0-.237-2.471 3.642 3.642 0 0 1-.096-.834c.075-.573.21-1.106.91-1.208.486.29.558.896.95 1.26.244.602-.058 1.32.4 1.878a.429.429 0 0 0 .075.53 8.257 8.257 0 0 1 .03 4.149l-.006.618a1.68 1.68 0 0 1-.051 1.773.313.313 0 0 0-.068.465c-.437.568-.048 1.365-.535 1.919l-.15.135.049.195a1.583 1.583 0 0 1-.437.854.338.338 0 0 0-.132.448c-.25.417-.153.996-.62 1.311l.039-.043a1.048 1.048 0 0 1-.666.592l.027-.005a4.887 4.887 0 0 0 .034 3.217.315.315 0 0 0 .18.444.372.372 0 0 1 .146.355q-.038.195-.093.195Z" class="color323437 svgShape"></path><path fill="#1e40af" d="M327.868 271.943c.556-.178 1.143-.574 1.664-.5 5.008.715 10.08.455 15.09 1.068.101.012.166.33.247.505-.055.506-.48.535-.838.65a1.622 1.622 0 0 0-1.568.092c-1.14.674-2.487-.112-3.633.517l.02-.035c-1.49.95-3.25-.104-4.767.64l.007-.018c-1.752.92-3.72-.124-5.493.601l-.27-.014-.157.222c-.427.205-.251.795-.65 1.018l.015-.025a.876.876 0 0 1-.722.326 1.196 1.196 0 0 1-.833-.856 3.487 3.487 0 0 1 .347-2.02c.09-.26.199-.512.31-.763.363-.509.256-1.436 1.231-1.408Z" class="color272d2f svgShape"></path><path fill="#172554" d="m209.758 333.21-.804.76a.838.838 0 0 1-1.114-.045l-.076-.028c-.434-.572-1.283-.03-1.705-.635l.004.002c-.68-.614-1.665-.657-2.354-1.254l.018.013c-.377-.24-.973-.096-1.164-.662l.025.027c-.334.014-.502-.252-.724-.427l-.138-.155-.205.031a4.478 4.478 0 0 1-2-1.166l.001.002c-.362-.272-.891-.18-1.206-.555l-.037-.01c-.773-.41-1.706-.505-2.344-1.182l-.03-.016c-.324-.322-.871-.203-1.163-.589l-.015-.01c-.31-.324-.936-.158-1.096-.71l-.004.006a4.556 4.556 0 0 1-1.859-1.095h.002c-.322-.305-.96-.132-1.097-.721l-.114.097.131-.072c-.36.013-.537-.237-.712-.492l.01.01a4.488 4.488 0 0 1-.62-.544l-.041-.031c-.278-.361-.908-.193-1.078-.716l.03.032a1.047 1.047 0 0 1-.685-.529l-.003-.004a3.201 3.201 0 0 1-1.214-1.125l-.031-.038-.553-.58-.022-.023a1.843 1.843 0 0 1-.542-.656l.033.035c-.44-.305-.371-.772-.388-1.213a.865.865 0 0 1 .987-.682c6.527 5.875 14.508 9.286 22.25 13.105.797.393 1.644.741 1.647 1.844ZM296.231 157.557c1.042-.684.64-1.76.653-2.684.065-4.9.08-9.799.113-14.698 1.33.42 1.348 1.623 1.352 2.66.036 9.455.308 18.912-.122 28.363-.748 2.346-.536 4.754-.417 7.159a1.145 1.145 0 0 1-.5.879c-.558.117-1.061.118-1.244-.586-.212-5.282.31-10.577-.278-15.851l-.008-.932a1.203 1.203 0 0 0-.001-1.413.234.234 0 0 0 .006-.36.804.804 0 0 0 .019-.903.26.26 0 0 0-.067-.414.362.362 0 0 1-.145-.395q.069-.2.14-.2a.302.302 0 0 0 .061-.453c.047-.319.198-.364.438-.172Z" class="color222628 svgShape"></path><path fill="#353638" d="m326.352 276.058.66.689a.402.402 0 0 1 .157.354q-.024.2-.074.199l-.14.556c-.327.349-.222.9-.577 1.235l-.007.01c-.354.312-.23.88-.628 1.167l.007-.013c-.43.58-.633 1.33-1.303 1.73l.054-.052c-.13.516-.795.33-.993.756l-.116.056-.625.487.002-.002a1.117 1.117 0 0 1-.674.543l.028-.027a5.056 5.056 0 0 1-1.75 1.25l.005-.006c-.278.435-.835.324-1.192.607l.01-.004c-.52.6-1.344.189-1.927.58l-.221-.075-.197.127a1.49 1.49 0 0 1-1.78.067l-.21-.155-.258.043c-.41-.232-.938-.173-1.3-.524l-.057-.02a5.512 5.512 0 0 1-2.82-1.937l.031.03a.656.656 0 0 1-.657-.599l.028.012a1.37 1.37 0 0 1-.604-.476 2.9 2.9 0 0 1-.406-1.523c.01-.406-.02-.831.472-1.012.765.012 1.216.562 1.74 1 4.454 3.719 9.193 2.96 12.377-1.97.685-1.062 1.026-2.359 2.136-3.134a.867.867 0 0 1 .809.031Z" class="color353638 svgShape"></path><path fill="#172554" d="M251.72 166.619c-.189.2-.357.55-.57.58-4.346.603-6.983 3.257-8.64 7.112a1.215 1.215 0 0 1-1.3.14.473.473 0 0 1-.023-.778v.001c.352-.314.252-.816.49-1.178a.245.245 0 0 0 .186-.32 1.595 1.595 0 0 1 .425-.878.41.41 0 0 0 .134-.464 2.042 2.042 0 0 1 .546-.725l.014-.014q.288-.293.574-.587l.017-.016a2.646 2.646 0 0 1 .657-.543l-.026.025a1.447 1.447 0 0 1 .63-.624l-.04.041a1.177 1.177 0 0 1 .724-.61.425.425 0 0 0 .455-.233 2.148 2.148 0 0 0 .592-.4l.005-.004c.354-.39.9-.323 1.32-.556l1.055-.164a3.2 3.2 0 0 1 2.346.02.384.384 0 0 0 .43.175ZM181.664 312.29l.006-2.022c.106-.283.247-.568-.056-.822l.064-.922c.343-.628.04-1.421.513-2.017l.006-.014c.37-.3.24-.878.646-1.158l-.014.021c.296-.36.222-.882.54-1.232l.017-.033a1.06 1.06 0 0 0 .406-.536.367.367 0 0 0 .263-.428c.228-.441.122-1.047.66-1.335l-.053.069c.04-.312.32-.476.45-.733l.034-.061c.43-.245.277-.77.527-1.1a.312.312 0 0 0 .177-.4q.048-.583.583-.346a2.505 2.505 0 0 1 .901 1.512c-.924 3.456-3.102 6.401-4.037 9.857a5.625 5.625 0 0 1-.98 1.939.415.415 0 0 1-.653-.24Z" class="color222628 svgShape"></path><path fill="#172554" d="m241.257 174.272 1.252.039-.85 2.735c.066 1.21-.784 1.922-1.475 2.72-.481.755-.67 1.849-1.947 1.682l-.77-.71a.4.4 0 0 1 .004-.5.242.242 0 0 0 .22-.315.983.983 0 0 1 .607-.848l-.037.047c.09-.288.34-.458.506-.69l.018-.04c.4-.267.252-.864.672-1.12l-.018.026c.293-.362.187-.932.634-1.213l-.026.04c.262-.383.19-.914.557-1.25v.001c.193-.227.251-.601.653-.604ZM295.787 139.71a1.693 1.693 0 0 1 .528 1.313l-.106 16.178a.496.496 0 0 1-.455-.25l-.062-2.348a.405.405 0 0 1-.113-.391q.057-.196.114-.196a6.035 6.035 0 0 0-.007-2.396 16.734 16.734 0 0 1-.025-5.934l.02-.619a11.078 11.078 0 0 1 .106-5.357Z" class="color222628 svgShape"></path><path fill="#b6dbea" d="M239.317 238.603c.014.77.317 1.22 1.177 1.187 1.225-.048 2.452-.046 3.679-.065q.471.376-.052.676c-2.712 1.011-5.517.33-8.278.453-.21-.095-.28-.193-.215-.296.067-.104.134-.156.203-.156 1.203-.232 3.068.656 2.982-1.76a.292.292 0 0 1 .504-.039Z" class="colorb6dbea svgShape"></path><path fill="#172554" d="m302.29 180.22-.225 4.163c-.559.206-.906-.09-1.198-.519a.734.734 0 0 1 .166-.667c.874-.764.533-1.8.552-2.73.062-2.907.066-5.814.092-8.721a.34.34 0 0 1 .453.293 17.817 17.817 0 0 0 .134 5.212.487.487 0 0 1 .004.58l-.006.61a.466.466 0 0 1-.008.582l.037 1.197ZM296.273 186.779l.068-2.346a.61.61 0 0 1 .91.238 24.82 24.82 0 0 1-.058 10.83q-.448.559-.783-.08a64.454 64.454 0 0 0-.146-8.057.44.44 0 0 1 .009-.585Z" class="color222628 svgShape"></path><path fill="#4f5557" d="M276.17 201.806c-.468.236-.35.717-.462 1.102-1.61-.555-1.757-1.653-1.129-3.04.544-.229.45-1.135 1.207-1.138q.266.194.169.375-.095.178-.188.178l.148.624a2.654 2.654 0 0 0 .391.64.564.564 0 0 0 .132.537.877.877 0 0 1 .084.676l-.352.046Z" class="color4f5557 svgShape"></path><path fill="#515658" d="m358.54 48.563.597-3.008 1.16-.62c-.534 1.188-.39 2.598-1.214 3.691q-.31.305-.543-.063Z" class="color515658 svgShape"></path><path fill="#172554" d="m296.273 182.605.104-2.373c1.875.743 1.2 2.108.806 3.405q-.392.506-.802.012Z" class="color222628 svgShape"></path><path fill="#aab9cc" d="m309.087 281.523.55 1.213a4.444 4.444 0 0 0-.414.534l-.248.686c-.71-.784-.522-1.734-.494-2.654a.433.433 0 0 1 .606.22Z" class="coloraab9cc svgShape"></path><path fill="#706c6e" d="M427.07 51.556a1.055 1.055 0 0 1-.58 1.236q-.26-.208-.187-.433.073-.228.155-.228a2.369 2.369 0 0 1-.025-.5l.637-.075Z" class="color706c6e svgShape"></path><path fill="#4f5557" d="m276.972 202.26-.119.599a1.54 1.54 0 0 1-.683-1.053l.192-.163q.422-.141.479.3a.213.213 0 0 0 .13.317Z" class="color4f5557 svgShape"></path><path fill="#172554" d="M301.663 168.775q.243.108.48.23l.008 1.008q-.227.14-.452.282l-.036-1.52ZM296.833 198.255a1.526 1.526 0 0 0-.441-.308.2.2 0 0 0-.016-.307c.145-.31.357-.35.626-.16a.743.743 0 0 1-.169.775ZM296.812 197.11a2.064 2.064 0 0 0-.414-.364v-.233q.122-.601.6-.226a.694.694 0 0 1-.186.822Z" class="color222628 svgShape"></path><path fill="#ffffff" d="M274.58 199.869a5.572 5.572 0 0 0 1.128 3.04.903.903 0 0 0 .12.54c.408.816.008 1.758.402 2.576a54.791 54.791 0 0 1-.61 6.17c-.973 4.653-3.865 7.065-8.745 8.054-1.425.288-3.01.001-4.21 1.13a2.323 2.323 0 0 1-.62.413c-.071.103-.316-.08-.319.17.557-.05 1.067.324 1.608.074 3.45.262 6.548-.917 9.746-2.542.336 2.693 1.852 4.773 2.693 7.13q.303.238.162.404a.342.342 0 0 1-.252.149c-4.69 2.3-9.767 3.034-14.866 3.683-1.673-1.567-1.074-3.996-2.19-5.773a24.177 24.177 0 0 0-2.341-3.389c-1.063-1.19-1.827-2.454-1.255-4.187-.67 3.304-2.307 4.641-5.516 4.431l-.587.012a.404.404 0 0 1-.6-.012l-.212-.137-.25.042c-.41-.232-.93-.18-1.302-.507l-.055-.025c-.262-.377-.886-.207-1.065-.708l.017.019c-.321-.045-.49-.291-.677-.513l-.016-.011a5.15 5.15 0 0 0-.616-.491l-.08-.058a2.503 2.503 0 0 0-.504-.607 8.137 8.137 0 0 1-.606-5.468 4.282 4.282 0 0 1 1.69-2.703c1.586-1.302 2.952-1.155 4.348.4a10.167 10.167 0 0 0 1.655 1.681c1.785 1.227 2.862.781 3.14-1.372a1.645 1.645 0 0 1 1.128-1.42c1.479-.714 3.125.055 4.654-.606 3.817-1.648 5.493-4.725 5.805-8.629a18.698 18.698 0 0 0-.264-5.324l1.123-.92a4.924 4.924 0 0 1 3.345 5.21c-.05.358-.42.658-.189 1.126 1.674-.171 1.632-1.504 1.756-2.716.911.171 1.665.76 2.586.604a.794.794 0 0 1 .727.628.528.528 0 0 0 .113.432Z" class="colorfff svgShape"></path><path fill="#172554" d="M226.324 310.608c-3.281-.846-5.876-3.035-8.822-4.535-1.747-.89-3.391-1.98-5.14-3.015-1.329 1.194-1.864 3.018-3.329 4.057-.847.189-.949-.42-1.077-1.002a4.433 4.433 0 0 1 1.327-2.906c1.138-1.268.865-2.192-.39-3.195-4.246-3.396-8.525-6.755-12.62-10.332-1.362-1.191-1.912-.694-2.575.663a75.2 75.2 0 0 1-4.63 8.284c-.514.782-.758 1.899-1.993 1.978-.578-.228-.635-.75-.715-1.26l.13-1.077c.52-.22.582-.686.627-1.162a.618.618 0 0 0 .468-.707 1.43 1.43 0 0 0 .64-1.153 1.267 1.267 0 0 0 .622-1.17c.557-.218.601-.692.594-1.192a.678.678 0 0 0 .483-.688 1.381 1.381 0 0 0 .613-1.18 1.209 1.209 0 0 0 .645-1.152 1.255 1.255 0 0 0 .614-1.177c.478-.273.518-.747.56-1.22.61-.407.768-.83.046-1.286a.688.688 0 0 0-.511-.674c-.14-.525-.453-1.035-.142-1.599 3.38 1.556 5.974 4.217 8.91 6.388 4.038 2.986 7.897 6.21 11.879 9.273 4.313 3.317 8.673 6.573 13.028 9.835a1.727 1.727 0 0 1 .758 1.204Z" class="color222628 svgShape"></path><path fill="#32353e" d="m309.087 281.523-.606-.22a5.45 5.45 0 0 0-1.112-2.362 27.606 27.606 0 0 1-4.179-12.379c.957-.963.386-2.171.52-3.265.136-1.098-.379-2.309.58-3.26.945.813.858 1.945.845 3.004a32.49 32.49 0 0 0 3.215 13.951c.473 1.043 1.262 2.046.75 3.323Z" class="color32353e svgShape"></path><path fill="#bdc4dc" d="M277.479 308.899a14.977 14.977 0 0 1 .576 4.367c-.184 4.522.952 8.984.586 13.512q-.269.37-.51-.019c-.14-.26-.393-.516-.4-.78-.167-5.695-1.198-11.354-.733-17.075.157-.293.317-.28.48-.005Z" class="colorbdc4dc svgShape"></path><path fill="#a7b2d1" d="M276.294 300.602c-.101-.168-.279-.33-.293-.505q-.47-5.746-.896-11.496c-.034-.467-.038-1.093.67-1.018.42.046.527.522.506.942-.184 3.636.766 7.205.637 10.838-.42.307-.147.962-.624 1.24Z" class="colora7b2d1 svgShape"></path><path fill="#c0d0e3" d="M274.1 235.684a14.002 14.002 0 0 1-6.398 1.566c2.674-2.16-.382-4.154.497-6.254 1.28.651 1.33 1.898 1.468 2.833.261 1.77 1.175 2.026 2.635 1.733a4.533 4.533 0 0 1 .878-.007.624.624 0 0 1 .92.13Z" class="colorc0d0e3 svgShape"></path><path fill="#1e3a8a" d="M304.918 228.457c.392 4.463-.768 8.85-.652 13.303.009.342-.317.693-.487 1.04l-.622-.62c.416-4.574 1.178-9.117 1.199-13.725q.283-.383.562.002Z" class="color2a3c73 svgShape"></path><path fill="#a7b1d1" d="M272.076 243.335a32.322 32.322 0 0 1 1.214 9.596c-.207.229-.25.615-.64.668-.883-3.369-.703-6.84-.986-10.267Z" class="colora7b1d1 svgShape"></path><path fill="#c8cee1" d="M275.21 276.577a32.134 32.134 0 0 1 .314 9.805 39.623 39.623 0 0 1-.853-8.506c.295-.385.018-1.007.538-1.299Z" class="colorc8cee1 svgShape"></path><path fill="#ccd3e5" d="M235.707 295.595a32.26 32.26 0 0 1 1.183-7.725c.398.081.435.467.617.73l-1.152 8.935c-1.435-.24-.635-1.225-.648-1.94Z" class="colorccd3e5 svgShape"></path><path fill="#bec6dd" d="M279.197 362.113c-.759-3.221-.52-6.478-.354-9.733a.544.544 0 0 1 .93.001 12.143 12.143 0 0 1-.028 4.22c-.528 1.803.401 3.75-.548 5.512Z" class="colorbec6dd svgShape"></path><path fill="#b4bdd8" d="m279.773 352.381-.93-.001c-.06-1.371-.069-2.747-.192-4.112a4.265 4.265 0 0 1 .727-3.064l.395-.01c.001 2.395.55 4.791 0 7.187Z" class="colorb4bdd8 svgShape"></path><path fill="#cdd6e6" d="m279.773 345.194-.198-.009-.197.02c-.063-.182-.237-.447-.172-.532 1.457-1.927.35-3.1-1.192-4.155.062-.38.397-.427.672-.547l3.31 1.837a8.011 8.011 0 0 1-2.223 3.386Z" class="colorcdd6e6 svgShape"></path><path fill="#bcc4dc" d="M257.867 236.814c.207-1.623.417-3.246.619-4.87a1.02 1.02 0 0 1 1.121-1.043 6.853 6.853 0 0 1-.358 3.462 2.047 2.047 0 0 0 .447 2.418c-.277.464-.868.21-1.209.53l-.252.01-.245-.058c-.271-.033-.379-.11-.326-.233.063-.144.13-.216.203-.216Z" class="colorbcc4dc svgShape"></path><path fill="#d8dcea" d="m272.65 253.6.64-.668a52.304 52.304 0 0 1 .61 7.118c-.197.227-.242.585-.593.677-.67-2.335-.536-4.743-.657-7.128Z" class="colord8dcea svgShape"></path><path fill="#dbe4ef" d="m278.686 339.971-.673.548a1.071 1.071 0 0 1-.272-.097c-2.62-1.843-2.621-1.845-.435-4.206.193-.21.412-.396.618-.593a.415.415 0 0 1 .736.067 4.33 4.33 0 0 1-.57 1.324c-1.225 1.31-.351 2.126.596 2.957Z" class="colordbe4ef svgShape"></path><path fill="#acb6d3" d="M273.958 261.235c.813 1.737.56 3.577.521 5.396-.368.331-.08.973-.586 1.238-.938-2.148-.494-4.41-.55-6.632q.306-.407.615-.002Z" class="coloracb6d3 svgShape"></path><path fill="#b2bbd6" d="M275.683 227.177a.743.743 0 0 1 .09-.553l1.15-.058c1.716 1.317 2.303 3.22 2.97 5.401-1.444-.091-1.323-1.228-1.765-1.814-.775-1.027-.723-2.723-2.445-2.976Z" class="colorb2bbd6 svgShape"></path><path fill="#e4e8f1" d="m278.66 335.69-.736-.067.207-8.864a3.248 3.248 0 0 0 .51.019 28.999 28.999 0 0 1 .019 8.912Z" class="colore4e8f1 svgShape"></path><path fill="#3e414c" d="M259.073 224.884c1.13 1.832 1.221 3.967 1.745 5.976l-1.14-.044c-1.003-1.221-.302-2.91-1.145-4.175.488-.49-.113-1.316.54-1.757Z" class="color3e414c svgShape"></path><path fill="#a1abcd" d="M277.479 308.899q-.24.007-.481.005c-.374-1.597-.91-3.176-.56-4.857.45-.525-.12-1.375.581-1.82.85 2.176.561 4.43.46 6.672Z" class="colora1abcd svgShape"></path><path fill="#c7cde1" d="M279.197 362.113c.447-1.811-.41-3.752.549-5.512a43.816 43.816 0 0 1 .136 8.876l-.602-.007-.083-3.357Z" class="colorc7cde1 svgShape"></path><path fill="#92a4c9" d="M293.7 230.366c-1.502.985-3.239 1.101-5.549 1.687 1.75-1.64 3.489-1.64 4.914-2.322.268.156.617.23.634.635Z" class="color92a4c9 svgShape"></path><path fill="#b2b8d5" d="M235.707 295.595c.186.657-.059 1.457.648 1.94.182 1.303-.47 2.406-.833 3.598a8.426 8.426 0 0 1 .185-5.538Z" class="colorb2b8d5 svgShape"></path><path fill="#c1cde1" d="m244.121 240.401.051-.676c1.491-.832 3.193-.633 4.783-.976.262.123.598.147.682.509a31.304 31.304 0 0 1-5.516 1.143Z" class="colorc1cde1 svgShape"></path><path fill="#697db1" d="M257.867 236.814a.91.91 0 0 1 .122.45l-3.721.718c-.213-.231-.623-.287-.628-.705 1.362-.586 2.72-1.21 4.227-.463Z" class="color697db1 svgShape"></path><path fill="#d5ecf4" d="M261.422 236.797h4.854a5.508 5.508 0 0 1-4.816.597q-.307-.18-.222-.386.088-.21.184-.21Z" class="colord5ecf4 svgShape"></path><path fill="#9aa7cb" d="M271.51 240.988c-.788-1.002-.534-2.12-.513-3.57a3.813 3.813 0 0 1 1.106 3.588q-.309.389-.592-.018Z" class="color9aa7cb svgShape"></path><path fill="#9ea9cc" d="M274.474 274.428c-.878-1.165-.504-2.467-.405-3.738.167-.236.198-.599.587-.626a3.167 3.167 0 0 1 .381 2.558c-.443.522.107 1.354-.563 1.806Z" class="color9ea9cc svgShape"></path><path fill="#cbd1e4" d="M274.474 274.428c.186-.602-.093-1.35.563-1.806l.172 3.955a1.744 1.744 0 0 1-.538 1.3l-.197-3.449Z" class="colorcbd1e4 svgShape"></path><path fill="#d2d7e7" d="M277.02 302.228c-.231.594.041 1.35-.583 1.819a11.67 11.67 0 0 1-.143-3.445c.136-.449.094-.988.624-1.239l.101 2.865Z" class="colord2d7e7 svgShape"></path><path fill="#4a5fa0" d="M261.44 302.89a2.73 2.73 0 0 1 1.394-2.287c.264 1.463-.88 2.066-1.324 2.96q-.538-.284-.07-.672Z" class="color4a5fa0 svgShape"></path><path fill="#b1bed8" d="M232.85 290.413c-.558-.84-1.43-1.568-1.03-2.809 1.147.33 1.07 1.54 1.734 2.163.075.553-.102.832-.704.646Z" class="colorb1bed8 svgShape"></path><path fill="#d0d4e6" d="m274.656 270.063-.587.627a6.816 6.816 0 0 1-.176-2.821c.113-.452.103-.962.586-1.238l.177 3.433Z" class="colord0d4e6 svgShape"></path><path fill="#b9c1da" d="M250.096 238.52a5.553 5.553 0 0 1 2.446-.924.84.84 0 0 1 .64.445c-.832.906-2.122.556-3.078 1.121q-.298-.21-.202-.426.096-.216.195-.216Z" class="colorb9c1da svgShape"></path><path fill="#b9cfe2" d="M270.962 231.552a.838.838 0 0 1 .975.792c.046.339-.268.498-.557.536a.744.744 0 0 1-.95-.763c-.019-.338.23-.492.532-.565Z" class="colorb9cfe2 svgShape"></path><path fill="#8e9fc6" d="M276.925 234.382a2.026 2.026 0 0 1 .435-.38c.357-.164.842-.332 1.028.107.172.409-.274.66-.628.782a3.735 3.735 0 0 1-.861.093q-.282-.213-.177-.41.103-.192.203-.192Z" class="color8e9fc6 svgShape"></path><path fill="#c3cae0" d="m261.422 236.797.037.596-2.972-.083a1.422 1.422 0 0 1 1.209-.529l1.726.016Z" class="colorc3cae0 svgShape"></path><path fill="#717fb3" d="M232.85 290.413a.845.845 0 0 0 .703-.646l1.41.976c-.944.411-1.603.397-2.113-.33Z" class="color717fb3 svgShape"></path><path fill="#cad3e5" d="M271.51 240.988q.297-.002.593.018a4.773 4.773 0 0 1-.027 2.329l-.206-.003h-.206l-.153-2.344Z" class="colorcad3e5 svgShape"></path><path fill="#c8d2e4" d="m293.7 230.366-.635-.635 1.053-.777.791.815c-.247.516-.753.506-1.21.597Z" class="colorc8d2e4 svgShape"></path><path fill="#798cbb" d="m261.44 302.89.07.672c-.2.306-.54.715-.777.267-.239-.452.293-.746.707-.938Z" class="color798cbb svgShape"></path><path fill="#bbd2e4" d="m274.1 235.684-.92-.129a4.698 4.698 0 0 1 .963-.502 2.044 2.044 0 0 1 .788.117c-.098.461-.447.517-.832.514Z" class="colorbbd2e4 svgShape"></path><path fill="#bbd8e8" d="m253.182 238.041-.64-.446 1.098-.317c.293.16.584.322.628.704l-1.086.06Z" class="colorbbd8e8 svgShape"></path><path fill="#e4eaf2" d="m237.507 288.6-.617-.73c.061-.35-.044-.844.516-.814.107.006.255.455.268.705a3.333 3.333 0 0 1-.167.839Z" class="colore4eaf2 svgShape"></path><path fill="#dae0ed" d="m273.958 261.235-.616.002a.603.603 0 0 1-.035-.51l.593-.677.058 1.185Z" class="colordae0ed svgShape"></path><path fill="#b7dae9" d="m276.925 234.382-.026.602c-.338.009-.909.227-.939-.162-.047-.613.612-.33.965-.44Z" class="colorb7dae9 svgShape"></path><path fill="#bfd2e5" d="m250.096 238.52.008.642-.22.113-.247-.017-.682-.51 1.141-.228Z" class="colorbfd2e5 svgShape"></path><path fill="#fcfdfd" d="M295.54 75.959c.594-12.478.448-24.968.572-37.453.004-.397-.007-.795.027-1.189a1.032 1.032 0 0 1 2.035-.09 6.01 6.01 0 0 1 .103 1.18c.469 9.3.921 18.6 1.412 27.899.151 2.864.407 5.724.614 8.587-.177.539-.314 1.091-1.072 1.077-1.23-.023-2.461-.01-3.692-.011Z" class="colorfcfdfd svgShape"></path><path fill="#c7d2e4" d="M207.206 91.486c-3.005-3.35-5.984-6.724-8.71-10.311a10.15 10.15 0 0 1-1.62-2.779.696.696 0 0 1 .96-.116c2.852 4.554 6.915 8.16 9.888 12.62a.892.892 0 0 1-.518.586Z" class="colorc7d2e4 svgShape"></path><path fill="#d1d8e7" d="M196.515 77.202c-2.803-2.969-4.422-6.748-6.829-9.99a10.36 10.36 0 0 1-.95-1.848 2.17 2.17 0 0 1 .1-1.732l.708.405c1.597 3.925 4.376 7.142 6.462 10.774a2.968 2.968 0 0 1 .433.747l.076 1.644Z" class="colord1d8e7 svgShape"></path><path fill="#b7c0da" d="m331.84 103.406 5.228-10.76a.425.425 0 0 1 .666.023 51.516 51.516 0 0 1-5.323 11.43c-.389-.068-.438-.415-.571-.693Z" class="colorb7c0da svgShape"></path><path fill="#c8cdcd" d="M225.78 72.652a22.394 22.394 0 0 1-4.34-4.918c-.142-.622.11-.848.72-.717l3.833 4.337c.336.381.542.793.192 1.284l-.205-.038Z" class="colorc8cdcd svgShape"></path><path fill="#b9c3db" d="M330.625 107.216a13.245 13.245 0 0 1-3.592 6.443.537.537 0 0 1-.105-.846 53.972 53.972 0 0 1 3.597-6.517.658.658 0 0 1 .1.92Z" class="colorb9c3db svgShape"></path><path fill="#b2b5d3" d="M220.34 105.276a55.742 55.742 0 0 1-5.48-5.413.456.456 0 0 1 .799-.073 16.616 16.616 0 0 1 4.703 4.491 1.541 1.541 0 0 1 .226.71l-.248.285Z" class="colorb2b5d3 svgShape"></path><path fill="#acb7d4" d="m326.928 112.813.104.846a9.248 9.248 0 0 1-3.647 5.186l.039.034c.372-2.482 2.276-4.079 3.504-6.066Z" class="coloracb7d4 svgShape"></path><path fill="#c0c8de" d="M342.568 74.86a22.955 22.955 0 0 1-1.206 6.037c-.548-.277-.27-.883-.51-1.282.449-1.764.214-3.672 1.132-5.336.543-.157.796-.02.584.581Z" class="colorc0c8de svgShape"></path><path fill="#abb7d4" d="m338.347 87.911 1.618-4.94c.607.243.266.947.634 1.306l-1.578 4.375c-.403-.084-.45-.493-.674-.74Z" class="colorabb7d4 svgShape"></path><path fill="#c1cae0" d="m338.347 87.911.674.741a11.031 11.031 0 0 1-1.287 4.017l-.666-.023 1.279-4.735Z" class="colorc1cae0 svgShape"></path><path fill="#a5a8a9" d="m283.025 74.332-.1-3.135q.323-.407.642.004c1.065 1.27.032 2.896.72 4.23l-.286.016-.242.11-.247-.096c-.164-.376-.053-.87-.487-1.129Z" class="colora5a8a9 svgShape"></path><path fill="#d0d7e7" d="M340.6 84.277c-.523-.284-.511-.828-.635-1.306l.887-3.357a1.96 1.96 0 0 1 .51 1.283l-.763 3.38Z" class="colord0d7e7 svgShape"></path><path fill="#c2c8de" d="m330.625 107.216-.1-.92a9.551 9.551 0 0 1 1.315-2.89l.571.693a6.092 6.092 0 0 1-1.786 3.117Z" class="colorc2c8de svgShape"></path><path fill="#d3d8e8" d="M212.53 97.573a11.609 11.609 0 0 1-2.749-2.851c-.139-.223-.193-.583.22-.608a2.704 2.704 0 0 1 .813.211 2.799 2.799 0 0 0 1.2 1.313 1.84 1.84 0 0 1 .504.82 1.725 1.725 0 0 0 .039.458q.259.23.16.445-.095.212-.186.212Z" class="colord3d8e8 svgShape"></path><path fill="#d0e0ec" d="m212.53 97.573.027-.657a6.714 6.714 0 0 1 3.101 2.874l-.798.072a7.146 7.146 0 0 1-2.33-2.289Z" class="colord0e0ec svgShape"></path><path fill="#97a8cc" d="M320.56 121.892a5.815 5.815 0 0 1 2.864-3.013l-.04-.034a4.386 4.386 0 0 1-2.07 3.026.532.532 0 0 1-.754.02Z" class="color97a8cc svgShape"></path><path fill="#8195c0" d="M319.576 123.498c-.113 1.192-.935 1.747-2.196 2.759a3.89 3.89 0 0 1 2.196-2.759Z" class="color8195c0 svgShape"></path><path fill="#d7deec" d="m207.206 91.486.518-.587 1.28 1.168c-.025.35.245.809-.158 1.017-.378.194-.657-.185-.871-.456-.284-.359-.515-.76-.769-1.142Z" class="colord7deec svgShape"></path><path fill="#8999c3" d="m342.568 74.86-.584-.581c.008-.468-.082-1.283.558-1.056.948.334.485 1.07.026 1.637Z" class="color8999c3 svgShape"></path><path fill="#6674ac" d="M222.721 106.964a1.798 1.798 0 0 1-1.815-1.212c.918-.065 1.78-.045 1.815 1.212Z" class="color6674ac svgShape"></path><path fill="#6b87b8" d="M224.03 107.548c-.91.814-1.066-.024-1.338-.61a1.653 1.653 0 0 1 1.338.61Z" class="color6b87b8 svgShape"></path><path fill="#adc0d9" d="m197.835 78.28-.959.116a1.058 1.058 0 0 1-.397-1.246c.771-.006 1.042.588 1.356 1.13Z" class="coloradc0d9 svgShape"></path><path fill="#bcd1e4" d="m320.56 121.892.753-.021c-.211.238-.243.742-.652.67-.286-.051-.256-.397-.1-.65Z" class="colorbcd1e4 svgShape"></path><path fill="#8ba9cc" d="m316.404 126.917.195-.082-.017.197-.178-.115z" class="color8ba9cc svgShape"></path><path fill="#6674ac" d="m220.934 105.779-.594-.503a1.222 1.222 0 0 1-.003-.366 1.61 1.61 0 0 1 .634.065l.085.31q-.054.249-.122.494Z" class="color6674ac svgShape"></path><path fill="#6674ac" d="M220.9 104.593c.49.133.403.394.155.692l-.2-.187a.325.325 0 0 1 .046-.505Z" class="color6674ac svgShape"></path><path fill="#c9d5e6" d="M220.9 104.593q-.012.254-.045.505a.533.533 0 0 1-.518-.188l.025-.628q.27.154.539.31Z" class="colorc9d5e6 svgShape"></path><path fill="#1d4ed8" d="m212.518 96.457-.504-.819a.974.974 0 0 1 .504.82Z" class="color2d4490 svgShape"></path><path fill="#d6e1e2" d="M283.512 75.461a1.202 1.202 0 0 1 .489-.015c-.044.146-.06.396-.137.416-.32.085-.323-.184-.352-.401Z" class="colord6e1e2 svgShape"></path><path fill="#1d4ed8" d="M196.44 75.558a.787.787 0 0 1-.434-.747l.433.747Z" class="color2d4490 svgShape"></path><path fill="#a9abac" d="M282.247 59.285c-.128-3.435-.844-6.833-.625-10.288.06-.953-.27-1.99.606-2.764-.184 4.38 1.124 8.694.564 13.09q-.298.348-.545-.038Z" class="colora9abac svgShape"></path><path fill="#929798" d="m350.31 65.858 3.102-6.466.53.253a23.599 23.599 0 0 1-2.926 6.282q-.398.43-.705-.069Z" class="color929798 svgShape"></path><path fill="#959a9b" d="m350.31 65.858.705.07a30.546 30.546 0 0 1-3.808 6.347c.39-2.965 2.147-4.497 3.104-6.417Z" class="color959a9b svgShape"></path><path fill="#979b9c" d="M282.805 68.907a3.973 3.973 0 0 1-.393-3.129c.31-.346.013-.972.557-1.211a5.336 5.336 0 0 1 .46 3.709c-.207.21-.249.586-.624.63Z" class="color979b9c svgShape"></path><path fill="#c9cacb" d="m282.969 64.567-.557 1.211a30.17 30.17 0 0 1-.165-6.494 2.805 2.805 0 0 0 .545.039l.177 5.244Z" class="colorc9cacb svgShape"></path><path fill="#828a8b" d="M416.433 65.313a11.625 11.625 0 0 1 2.332-3.01l.217.265a2.317 2.317 0 0 0-.232.638 5.024 5.024 0 0 1-1.856 2.564.941.941 0 0 1-.46-.457Z" class="color828a8b svgShape"></path><path fill="#879293" d="M421.094 59.883a2.973 2.973 0 0 1-1.678 2.415l-.226.142-.265-.033-.16-.104c.604-.982 1.106-2.065 2.378-2.38Z" class="color879293 svgShape"></path><path fill="#798688" d="M425.31 55.162a3.384 3.384 0 0 1-1.63 1.77.57.57 0 0 1-.683.034 9.39 9.39 0 0 1 2.246-2.66.543.543 0 0 1 .068.856Z" class="color798688 svgShape"></path><path fill="#a3a6a7" d="m414.596 68.838-2.234 2.755c-.257-1.7.711-2.172 1.434-2.783a.694.694 0 0 1 .579-.21l.221.238Z" class="colora3a6a7 svgShape"></path><path fill="#8e9b9c" d="M414.06 68.294a4.278 4.278 0 0 1 1.664-1.998.752.752 0 0 1 .153.938l-1.281 1.604-.235-.13q-.147-.21-.3-.414Z" class="color8e9b9c svgShape"></path><path fill="#616668" d="m425.31 55.162-.067-.854a4.095 4.095 0 0 1 1.215-2.177l.031.66a3.252 3.252 0 0 1-1.178 2.371Z" class="color616668 svgShape"></path><path fill="#8c9090" d="M422.953 57.665a2.973 2.973 0 0 1-1.859 2.218l.049.04c-.212-1.302.756-1.84 1.597-2.46Z" class="color8c9090 svgShape"></path><path fill="#7c8384" d="M355.715 54.578a2.764 2.764 0 0 1 1.41-1.817c.347.896-.158 1.367-.752 1.805a.4.4 0 0 1-.658.011Z" class="color7c8384 svgShape"></path><path fill="#dee1e1" d="m282.805 68.907.624-.631q.07 1.462.138 2.925l-.642-.004-.12-2.29Z" class="colordee1e1 svgShape"></path><path fill="#777e80" d="M358.54 48.563q.272.03.543.063l-.588 1.733c-.193.239-.386.251-.58 0a1.788 1.788 0 0 1 .625-1.796Z" class="color777e80 svgShape"></path><path fill="#8c8c8e" d="M354.744 57.894c-.092-.109-.258-.217-.284-.352-.092-.469.215-.709.608-.817.087-.024.33.175.342.288.048.445-.261.678-.666.881Z" class="color8c8c8e svgShape"></path><path fill="#787778" d="M357.916 50.358q.29.005.58 0a2.355 2.355 0 0 1-.855 1.448c-.562-.619-.137-1.032.274-1.448Z" class="color787778 svgShape"></path><path fill="#9b9f9f" d="M355.715 54.578c.219-.005.437-.009.656-.012q-.247.505-.497 1.01c-.4-.278-.31-.633-.159-.998Z" class="color9b9f9f svgShape"></path><path fill="#818385" d="m415.877 67.234-.153-.937c.104-.315.289-.51.653-.439l-.034-.033a1.436 1.436 0 0 1-.466 1.41Z" class="color818385 svgShape"></path><path fill="#cbdcdc" d="M414.06 68.294a.366.366 0 0 1 .3.414 1.89 1.89 0 0 0-.564.102 1.599 1.599 0 0 1 .265-.516Z" class="colorcbdcdc svgShape"></path><path fill="#bac1c1" d="m416.433 65.313.46.457-.266.111-.284-.056.033.033a.469.469 0 0 1 .058-.545Z" class="colorbac1c1 svgShape"></path><path fill="#a0a8a9" d="M418.925 62.407a3.187 3.187 0 0 1 .49-.11l-.664.909.174-.799Z" class="colora0a8a9 svgShape"></path><path fill="#abb1b1" d="m422.997 56.966.682-.033-.727.731c.002-.14-.068-.208-.21-.2a.931.931 0 0 1 .255-.498Z" class="colorabb1b1 svgShape"></path><path fill="#c8cacb" d="M216.113 60.586a28.484 28.484 0 0 1-4.094-5.474c.17-.235.226-.578.594-.623 1.373 1.802 3.117 3.322 4.106 5.415-.176.25-.23.61-.606.682Z" class="colorc8cacb svgShape"></path><path fill="#cfd1d1" d="m216.113 60.586.606-.682a17.617 17.617 0 0 1 3.088 4.059c.194.655-.063.87-.699.715a25.493 25.493 0 0 1-2.995-4.092Z" class="colorcfd1d1 svgShape"></path><path fill="#aab2b3" d="M209.57 51.614a13.587 13.587 0 0 1-1.905-3.274c1.793-.16 1.624 1.531 2.518 2.062a1.892 1.892 0 0 0 .085.53.838.838 0 0 1-.697.682Z" class="coloraab2b3 svgShape"></path><path fill="#b6baba" d="M209.57 51.614q.35-.34.698-.682a6.687 6.687 0 0 1 1.61 2.458c-.122.285-.185.62-.577.674a8.59 8.59 0 0 1-1.73-2.45Z" class="colorb6baba svgShape"></path><path fill="#aab2b3" d="M222.16 67.017a1.063 1.063 0 0 0-.72.717c-.786-.564-1.437-1.196-1.164-2.297a.521.521 0 0 1 .068-.826 8.538 8.538 0 0 1 1.815 2.406Z" class="coloraab2b3 svgShape"></path><path fill="#dde7e7" d="m211.301 54.064.577-.674.735 1.099-.594.623Z" class="colordde7e7 svgShape"></path><path fill="#bcb8b9" d="m220.344 64.611-.068.826c-.505-.075-.995-.172-1.168-.759l.7-.715a.755.755 0 0 1 .536.648Z" class="colorbcb8b9 svgShape"></path><path fill="#fefefe" d="M261.401 192.762c1.583 1.21 2.21 3.035 3.039 4.73 2.933 3.627-.797 11.031-4.822 11.971-1.892.442-3.664.608-5.313-.636-2.718-1.128-4.036-3.556-5.462-5.883-.257-.43.031-.704.272-.996.532-3.279 2.095-5.54 5.58-6.315 1.598-.355 2.948-1.523 4.473-2.196.764-.155 1.325-.999 2.233-.675Z" class="colorfefefe svgShape"></path><path fill="#fcfdfd" d="M277.557 180.826c3.112 3.533 3.656 7.715 2.854 12.128-.456 2.511-2.065 3.7-4.671 3.948-.115-.075-.23-.149-.348-.22a5.194 5.194 0 0 1-.92-1.366 7.964 7.964 0 0 1 .047-6.887 29.963 29.963 0 0 0 1.18-3.042c.738-2.525 0-3.557-2.595-3.623a9.464 9.464 0 0 1-2.068.05c-.436-.172-.768-.414-.646-.959 2.382-1.814 4.774-.92 7.167-.03Z" class="colorfcfdfd svgShape"></path><path fill="#3f3f41" d="M254.305 208.827a9.002 9.002 0 0 0 6.279-.565 8.195 8.195 0 0 0 4.082-8.14c-.093-.875-.152-1.754-.226-2.631.747-.484.442-1.327.678-1.986a11.444 11.444 0 0 1-.956 11.491 7.727 7.727 0 0 1-9.24 3.069Z" class="color3f3f41 svgShape"></path><path fill="#353537" d="M259.073 224.884c-.072.62.126 1.322-.54 1.758a2.3 2.3 0 0 0-1.361-1.83 5.015 5.015 0 0 0-1.58-2.39c-.382-1.136-.91-1.827-2.052-.682-1.254.698-2.406 1.701-4.014 1.346l-.01-1.144c3.27-1.19 3.27-1.19 6.02-5.507a4.644 4.644 0 0 0 1.52 4.936 7.287 7.287 0 0 1 2.017 3.513Z" class="color353537 svgShape"></path><path fill="#272b2d" d="M263.295 192.703c-.485-.26-.86-.785-.534-1.175 1.031-1.233 1.054-3.243 2.805-3.87 1.318-.471-.042-2.211 1.353-2.542a2.758 2.758 0 0 1 .63 1.75c-.316 1.987 1.415 3.816.46 5.853l-.136.04c-1.003-.821-1.441.921-2.352.517a1.43 1.43 0 0 1 .145-1.22c.195-.36-.161-.5-.31-.722-1.363-.554-1.144 1.263-2.061 1.369Z" class="color272b2d svgShape"></path><path fill="#d8dcdc" d="m266.838 186.786.081-1.67-.01-.016c.208-.417.123-.962.558-1.28.87-1.09 1.457-2.46 2.923-2.965q.334.316.67.631c-.464 2.197-2.064 3.834-2.884 5.856-.705.439-1.02-.062-1.338-.556Z" class="colord8dcdc svgShape"></path><path fill="#e3e4e4" d="M266.128 191.626c.378.764-.254 1.156-.607 1.65-1.006.832-1.598.059-2.226-.573-.312-1.657 1.238-2.131 1.83-3.25.779.664.196 1.701.995 2.164Z" class="colore3e4e4 svgShape"></path><path fill="#cadbdb" d="M261.401 192.762c-.6.39-.838 1.37-1.829 1.13a3.762 3.762 0 0 0-1.827-1.889 4.379 4.379 0 0 0-1.52-.322 8.61 8.61 0 0 1-2.494-.274c-.411-.208-.741-.466-.615-1.002l.995-.146a4.508 4.508 0 0 1 2.755-.006c1.883.165 3.555.713 4.536 2.509Z" class="colorcadbdb svgShape"></path><path fill="#b7b7b8" d="M248.272 201.777c-.773-.692-.378-1.693-.664-2.514-.194-.905-.567-1.837.384-2.57a1.3 1.3 0 0 1 .886.02c.894 1.343.476 2.81.4 4.247a1.427 1.427 0 0 1-1.006.817Z" class="colorb7b7b8 svgShape"></path><path fill="#272a2c" d="M248.153 196.837c-.634.707-.365 1.617-.545 2.427-1.202-.786-.632-2.227-1.141-3.321-.413-.888 1.302-.137 1.723-.836.636.59.687 1.168-.037 1.73Z" class="color272a2c svgShape"></path><path fill="#ccd4d4" d="M248.887 194.454c.183-1.452 1.26-2.208 2.318-2.98a.703.703 0 0 1 .8-.007c.022 1.852-1.43 2.713-2.556 3.793-.485-.06-.86-.2-.562-.806Z" class="colorccd4d4 svgShape"></path><path fill="#172554" d="M238.237 181.448c.855-.338.977-1.366 1.71-1.819q.154.043.31.084a2.246 2.246 0 0 0 .349.532 2.752 2.752 0 0 1-2.419 1.743l.035.035a2.483 2.483 0 0 1 .015-.575Z" class="color222628 svgShape"></path><path fill="#abb8b8" d="m252.13 191.613-.925-.138a3.669 3.669 0 0 1 1.91-1.07l.708.666c-.301 1.003-.927.99-1.693.542Z" class="colorabb8b8 svgShape"></path><path fill="#b6b9ba" d="m248.887 194.454.492.634c.585.848.119 1.364-.572 1.81l-.654-.061.037-1.73.697-.653Z" class="colorb6b9ba svgShape"></path><path fill="#b4c6c6" d="m256.866 190.253-2.755.006a2.71 2.71 0 0 1 2.755-.006Z" class="colorb4c6c6 svgShape"></path><path fill="#bec4c4" d="m248.272 201.777.548-.702c.608.192 1.018.49.651 1.208l-.628.661c-.509-.233-.55-.695-.57-1.167Z" class="colorbec4c4 svgShape"></path><path fill="#272b2d" d="M267.467 183.82a1.337 1.337 0 0 1-.56 1.28c-.092-.549-.026-1.027.56-1.28Z" class="color272b2d svgShape"></path><path fill="#353537" d="M245.444 220.607a1.341 1.341 0 0 1 1.065.708c-.53.026-.951-.11-1.065-.708ZM246.564 221.34a1.513 1.513 0 0 1 1.303.507 1.068 1.068 0 0 1-1.303-.507ZM246.617 223.026q-.057-.233-.133-.46a1.107 1.107 0 0 1 1.232.444l-1.1.016ZM244.27 221.803a3.356 3.356 0 0 1-.056-.485.533.533 0 0 1 .528.43 2.47 2.47 0 0 1-.472.055ZM243.608 221.277q-.04-.258-.062-.517a.65.65 0 0 1 .606.51l-.272.014Z" class="color353537 svgShape"></path><path fill="#353537" d="M244.784 220.113a.596.596 0 0 1 .677.513.697.697 0 0 1-.677-.513ZM243.531 220.748l-.287.007-.287-.015a1.217 1.217 0 0 1-.092-.512.67.67 0 0 1 .666.52ZM244.152 219.61a.557.557 0 0 1 .616.492.658.658 0 0 1-.616-.491Z" class="color353537 svgShape"></path><path fill="#353537" d="M242.876 220.232c-.38-.044-.533-.302-.6-.639a.691.691 0 0 1 .6.639ZM243.568 218.946l.505.608a.612.612 0 0 1-.505-.608ZM248.328 221.942l.6.012c-.207.34-.406.33-.6-.012ZM245.934 222.405a2.16 2.16 0 0 1-.567.088 1.959 1.959 0 0 1-.152-.495.67.67 0 0 1 .72.407Z" class="color353537 svgShape"></path><path fill="#172554" d="M238.187 181.988q-.134.148-.27.295c.017-.06.016-.149.056-.176a.905.905 0 0 1 .249-.084ZM240.25 179.616l.636.06-.28.57c-.398-.053-.62-.204-.356-.63Z" class="color222628 svgShape"></path><path fill="#ffffff" d="M309.1 280.315a36.183 36.183 0 0 1-4.81-20.278c-.091-1.806 1.255-1.994 2.534-2.232 4.573-.848 9.148-1.68 13.721-2.528 1.168-.217 2.328-.47 3.493-.708 1.167.002 2.511-.274 2.21 1.694-.707 4.599-.033 9.287-.882 13.879a16.351 16.351 0 0 1 .589 5.158.953.953 0 0 1-.104.9 14.117 14.117 0 0 1-5.044 6.377c-3.933 2.653-6.275 2.668-9.79-.442-.66-.584-1.28-1.212-1.918-1.82Z" class="colorfff svgShape"></path><path fill="#172554" d="m297.558 183.968.075.136-.082.132a1.716 1.716 0 0 1 .025 1.58 1.447 1.447 0 0 1-.008 1.296c.483 4.15.078 8.318.219 12.475a11.28 11.28 0 0 0 .18 3.25l.04.632c-.428.657-.112 1.413-.269 2.107l-.244.263q-.265.005-.53.006a45.34 45.34 0 0 1-.13-7.59l-.023-.982v-.164l.042-.94a.275.275 0 0 1 .006-.345l-.043-11.648.012-.205c-.053-1.258.523-2.595-.45-3.74v-.605a.686.686 0 0 1 1.083 0 3.723 3.723 0 0 1 .101 2.04 3.142 3.142 0 0 1-.004 2.302ZM301.536 204.828c-.853-3.207-.253-6.492-.496-9.733-.103-1.375-.003-2.766.005-4.15a.7.7 0 0 1 1.097.001 39.515 39.515 0 0 1 0 7.156c-.949 1.076-.391 2.378-.5 3.576-.093 1.044-.075 2.1-.106 3.15Z" class="color222628 svgShape"></path><path fill="#eaf2f2" d="M299.087 224.36a7.99 7.99 0 0 1 3.175.988 1.11 1.11 0 0 1 .755 1.379c-.12.67-.696.523-1.142.596a2.746 2.746 0 0 1-.292.006c-2.546.136-2.578.101-2.496-2.97Z" class="coloreaf2f2 svgShape"></path><path fill="#97c4c5" d="M294.594 211.955h5.018c-1.632.867-3.344.7-5.044.68l.026-.68Z" class="color97c4c5 svgShape"></path><path fill="#cbd6d7" d="M295.941 216.253c1.325-.729 2.552-.414 4.087.482-1.668.45-2.811-.468-4.087-.482Z" class="colorcbd6d7 svgShape"></path><path fill="#b3c9c9" d="M298.938 220.125a4.093 4.093 0 0 1 2.708.386c-1.79.222-3.102.597-4.292-.405a1.267 1.267 0 0 1 1.584.02Z" class="colorb3c9c9 svgShape"></path><path fill="#3f4345" d="M298.389 207.025a4.366 4.366 0 0 0 3.477-.23c-1.161 1.203-1.854 1.25-3.477.23Z" class="color3f4345 svgShape"></path><path fill="#9acbcc" d="m298.938 220.125-1.583-.019c.536-.758.536-.758 1.583.02Z" class="color9acbcc svgShape"></path><path fill="#3f4345" d="m298.327 205.836.057 1.18a1.185 1.185 0 0 1-.606-1.177l.016-.015c.183-.254.361-.264.533.012Z" class="color3f4345 svgShape"></path><path fill="#c0c1c8" d="m304.918 228.457-.281.021-.281-.023c.003-.36-.227-.98.168-1.005.708-.044.325.631.394 1.007Z" class="colorc0c1c8 svgShape"></path><path fill="#3f4345" d="M296.436 207.527a1.583 1.583 0 0 0 .169-.483.533.533 0 0 0 .558-.066.575.575 0 0 1-.727.55Z" class="color3f4345 svgShape"></path><path fill="#ffffff" d="m187.075 300.605 7.418-12.825c1.948.68 3.405 2.23 4.887 3.533 3.404 2.991 7.016 5.713 10.502 8.594 1.64 1.355 1.662 1.4.411 3.02a14.342 14.342 0 0 0-1.889 2.975c-.714 1.634.428 2.548 1.412 3.461 1.867 1.733 3.998 3.159 5.848 4.915a6.497 6.497 0 0 1 2.234 3.021 2.262 2.262 0 0 1-.074 1.707c-2.104 4.424-4.222 8.842-6.258 13.298-.417.913-.92 1.173-1.808.905-4.346-2.24-8.727-4.414-13.027-6.738-4.038-2.182-8.238-4.182-11.077-8.034-2.144-1.642-2.523-4.11-3.047-6.51a1.345 1.345 0 0 1 .146-1.239 20.104 20.104 0 0 1 2.915-7.222 18.035 18.035 0 0 0 1.407-2.861Z" class="colorfff svgShape"></path><path fill="#172554" d="M217.898 317.3c-3.12-2.567-5.886-5.538-9.21-7.879-1.326-.935-1.5-2.24-.284-3.52a1.315 1.315 0 0 0 .63 1.214c.406 1.5 1.894 1.887 2.895 2.759 2.401 2.093 5.176 3.791 6.828 6.652l-.86.774Z" class="color222628 svgShape"></path><path fill="#404547" d="M325.752 275.353c-1.295-1.65-.601-3.448-.386-5.21a1.94 1.94 0 0 1 .502 1.306 3.238 3.238 0 0 1-.116 3.904Z" class="color404547 svgShape"></path><path fill="#c0c7c9" d="m325.752 275.353.116-3.904a.816.816 0 0 1 .556.056c.962.797.102 1.89.455 2.787l-.527 1.766a2.223 2.223 0 0 1-.501.142l-.099-.847Z" class="colorc0c7c9 svgShape"></path><path fill="#fcfafa" d="M326.88 274.292c-.838-.817-.366-1.848-.456-2.787a.615.615 0 0 1 .54-.019 2.537 2.537 0 0 1 .086 2.343.426.426 0 0 1-.17.463Z" class="colorfcfafa svgShape"></path><path fill="#c0c7c9" d="m327.05 273.829-.086-2.343a.767.767 0 0 1 .904.458l-.818 1.885Z" class="colorc0c7c9 svgShape"></path><path fill="#172554" d="M300.942 182.158a2.453 2.453 0 0 1-.402-1.69q-.047-6.676-.073-13.352a1.928 1.928 0 0 1 .544 1.595l-.069 13.447Z" class="color222628 svgShape"></path><path fill="#f7f8f8" d="m266.838 186.786 1.218.545c2.25-.746 3.504.383 4.33 2.305.853 1.981 1.18 4.155 2.213 6.069a12.51 12.51 0 0 0 1.176 1.217l-.035-.02c-1.786 1.227-3.18.033-4.455-.9a14.253 14.253 0 0 1-3.276-3.283c-.42-1.972-1.666-3.78-1.171-5.933Z" class="colorf7f8f8 svgShape"></path><path fill="#4f5557" d="m274.466 199.437-.727-.628a.668.668 0 0 1 .727.628Z" class="color4f5557 svgShape"></path><path fill="#5b5153" d="M263.334 222.036c-.702.732-1.565.49-2.404.4-.367-1.198.876-.582 1.168-1.038a1.127 1.127 0 0 1 .567-.018l.669.656Z" class="color5b5153 svgShape"></path><path fill="#4f5557" d="M276.23 206.025a2.843 2.843 0 0 1-.403-2.577c.73.767.511 1.68.403 2.577Z" class="color4f5557 svgShape"></path><path fill="#172554" d="M182.848 311.759c.976 2.209 1.578 4.575 2.806 6.678l-.596.84a2.129 2.129 0 0 1-.498-.252 1.242 1.242 0 0 0-.59-1.195.764.764 0 0 0-.531-.648c-.06-.468-.114-.938-.616-1.173-.129-.616-.105-1.286-.625-1.764l.108-.633c.428-.546-.099-1.37.542-1.853ZM297.458 171.895a43.096 43.096 0 0 1 .077 6.554 7.943 7.943 0 0 1-.077-6.554ZM297.46 179.626h-1.084l.011-.597h1.088l-.014.597Z" class="color222628 svgShape"></path><path fill="#172554" d="M182.848 311.759c-.166.622.074 1.362-.542 1.853l-.167-1.051c.172-.635-.067-1.405.614-1.873l.095 1.071ZM302.142 190.946h-1.097c.044-2.381-.456-4.762.005-7.143l1.015.58a28.293 28.293 0 0 1 .077 6.563Z" class="color222628 svgShape"></path><path fill="#333b3d" d="M248.903 217.784c-.73-.39-.697-1.52-1.647-1.696-.617.13-.824-.155-.74-.733a3.008 3.008 0 0 1 1.9-.55 1.746 1.746 0 0 1 1.793.663c.326.625-1.09.315-.874 1.11a4.65 4.65 0 0 0 .216.534c.15.576-.021.843-.648.672Z" class="color333b3d svgShape"></path><path fill="#697779" d="M270.942 205.94a1.493 1.493 0 0 1-.252 2.596c-.74.498-1.462.149-1.505-.919.153-.16.316-.312.486-.458.18-.145.356-.291.524-.45a6.32 6.32 0 0 1 .747-.77Z" class="color697779 svgShape"></path><path fill="#292c2e" d="M270.942 205.94c-.048.658.165 1.432-.754 1.707l-.11-.27-.11.27-.783-.03a.735.735 0 0 1-.091-.498 1.065 1.065 0 0 1 .078-1.26c.63-.841 1.202-.425 1.77.08Z" class="color292c2e svgShape"></path><path fill="#737879" d="M246.517 215.355a1.112 1.112 0 0 0 .74.733c-.226.294-.473.575-.672.886-.21.329-.449.695-.858.512a.733.733 0 0 1-.29-.97c.197-.523.426-1.048 1.08-1.161Z" class="color737879 svgShape"></path><path fill="#bdb3b4" d="M262.098 221.398q-.583.52-1.167 1.038c-.638.143-1.113-.062-1.596-1.038Z" class="colorbdb3b4 svgShape"></path><path fill="#6e6c6e" d="m248.903 217.784.648-.672c.525.142.94.657.68.99-.433.556-.989.262-1.328-.318Z" class="color6e6c6e svgShape"></path><path fill="#697779" d="m269.172 205.858-.078 1.26c-.407-.446-.564-.878.078-1.26Z" class="color697779 svgShape"></path><path fill="#272a2c" d="m249.471 202.283-.651-1.208c-.33-1.392.04-2.786-.013-4.178l.572-1.81a12.582 12.582 0 0 1 2.751-3.474 1.937 1.937 0 0 0 1.693-.542l2.768-.053c.382.245.867.186 1.25.428.9.586 2.65.57 1.731 2.445-2.118 1.213-4.13 2.615-6.572 3.203a3.338 3.338 0 0 0-2.586 2.902c-.13.764-.296 1.522-.46 2.28-.013.056-.142.124-.214.122a.797.797 0 0 1-.269-.115Z" class="color272a2c svgShape"></path><path fill="#797677" d="M258.974 199.813a.66.66 0 0 1-.764.556.647.647 0 0 1-.48-.842c.068-.367.244-.734.728-.611.408.104.574.419.516.897Z" class="color797677 svgShape"></path><path fill="#b1acad" d="M256.006 198.894c-.133.101-.274.296-.396.285-.337-.032-.46-.269-.242-.55.1-.13.313-.172.475-.254l.163.52Z" class="colorb1acad svgShape"></path><path fill="#272b2d" d="M274.525 196.326c-1.902-1.434-1.921-3.784-2.567-5.747a4.14 4.14 0 0 0-3.902-3.248c-.285-2.609 1.605-4.1 3.003-5.845a5.672 5.672 0 0 1 4.278-.165c1.618.702 2.139 1.596 1.364 3.183-.48.985-.547 2.076-1.082 3.021a8.315 8.315 0 0 0-.407 8.04c.288.72-.046.88-.687.761Z" class="color272b2d svgShape"></path><path fill="#303234" d="m274.525 196.326.687-.76c.504.32.212.972.563 1.356-.493-.039-1.05.056-1.25-.596Z" class="color303234 svgShape"></path><path fill="#172554" d="m266.12 191.617.271-.261-.263.27Z" class="color222628 svgShape"></path><path fill="#b4c6c6" d="M257.84 191.446a1.638 1.638 0 0 1-1.25-.428 1.104 1.104 0 0 1 1.25.428Z" class="colorb4c6c6 svgShape"></path><path fill="#172554" d="M297.968 202.837a2.426 2.426 0 0 1-.468-1.928q.03-6.898.068-13.797a10.37 10.37 0 0 1 .4 4.303q.009 5.71 0 11.422Z" class="color222628 svgShape"></path><path fill="#424546" d="M298.327 205.836q-.267-.002-.533-.012c.063-.808-.267-1.7.505-2.355l.028 2.367Z" class="color424546 svgShape"></path><path fill="#172554" d="m297.558 183.968.004-2.3a1.803 1.803 0 0 1-.004 2.3ZM297.576 185.816l-.025-1.58c.356.521.572 1.044.025 1.58Z" class="color222628 svgShape"></path><path fill="#5e5556" d="M270.758 191.43c-.17.153-.347.45-.568.487-.57.098-.481-.397-.488-.725-.006-.266.09-.582.426-.562.415.025.61.325.63.8Z" class="color5e5556 svgShape"></path><path fill="#857f81" d="M269.967 207.647c-.136-.193-.102-.432.106-.434.205-.003.246.237.117.434Z" class="color857f81 svgShape"></path><path fill="#35393b" d="M272.32 186.953a.771.771 0 0 1 .691.741c.001.308-.273.579-.55.478-.209-.076-.351-.413-.462-.66-.128-.288-.045-.522.322-.559Z" class="color35393b svgShape"></path></svg></g></svg>