<svg id="SvgjsSvg1001" width="288" height="288" xmlns="http://www.w3.org/2000/svg" version="1.1" xmlns:xlink="http://www.w3.org/1999/xlink" xmlns:svgjs="http://svgjs.com/svgjs"><defs id="SvgjsDefs1002"></defs><g id="SvgjsG1008"><svg xmlns="http://www.w3.org/2000/svg" viewBox="0 0 2000 2000" width="288" height="288"><g class="color000 svgShape" data-name="Secondary shapes" fill="#000000"><path d="M841.51 1810.91c0-14.93-129.86-27-290-27s-290 12.1-290 27 129.86 27 290.05 27 289.95-12.08 289.95-27ZM1574.93 1706.1c0-14.32-161.4-25.93-360.49-25.93S854 1691.78 854 1706.1s161.4 25.93 360.49 25.93 360.44-11.61 360.44-25.93Z" style="mix-blend-mode:multiply" fill="#e7eeff" class="colore7eeff svgShape"></path><path fill="#e9edf7" d="M1188.6 419.8a2.5 2.5 0 0 1-.76-.11 2.77 2.77 0 0 1-1.9-3.42c14.71-51.29 91.77-213.76 147.83-296.15a2.77 2.77 0 0 1 4.58 3.11c-55.81 82-132.47 243.6-147.09 294.57a2.77 2.77 0 0 1-2.66 2Z" class="colore9edf7 svgShape"></path><path fill="none" stroke="#e9edf7" stroke-linecap="round" stroke-linejoin="round" stroke-width="5" d="M1331.14 116.16a11.72 11.72 0 1 1 15.39 6.14 11.72 11.72 0 0 1-15.39-6.14ZM1241.58 171.92a11.35 11.35 0 1 1 14.91 6 11.35 11.35 0 0 1-14.91-6ZM1285 280.4a12.88 12.88 0 1 1 16.92 6.76 12.88 12.88 0 0 1-16.92-6.76ZM1187.33 291.1a14.91 14.91 0 1 1 19.57 7.82 14.91 14.91 0 0 1-19.57-7.82ZM1350.05 151.54a9.73 9.73 0 1 1 12.78 5.1 9.74 9.74 0 0 1-12.78-5.1Z" class="colorStrokee9edf7 svgStroke"></path><path fill="#e9edf7" d="M1306.68 171.42a2.77 2.77 0 0 1-1.91-4.77c6.17-5.85 23.24-12 38.75-17.24 2.08-.71 3.85-1.31 5.15-1.78a2.77 2.77 0 1 1 1.87 5.21c-1.32.47-3.12 1.08-5.24 1.8-10 3.42-30.91 10.51-36.72 16a2.75 2.75 0 0 1-1.9.78ZM1270.25 237.64a2.76 2.76 0 0 1-2.76-2.72c-.34-21.06-10.77-49.49-13.54-55.95a2.77 2.77 0 1 1 5.08-2.19c3.52 8.2 13.64 36.46 14 58.05a2.77 2.77 0 0 1-2.72 2.81ZM1238.68 300.86a2.77 2.77 0 0 1-1.89-4.79c8.66-8.08 40.3-18.37 48.19-18.43a2.77 2.77 0 0 1 0 5.53c-6.92.06-36.91 9.9-44.47 16.95a2.78 2.78 0 0 1-1.83.74ZM1212.06 359a2.77 2.77 0 0 1-2.74-2.79c0-7.51-8.06-47.07-10-55.52a2.76 2.76 0 1 1 5.39-1.23c1.51 6.66 10.17 48.16 10.12 56.79a2.77 2.77 0 0 1-2.77 2.75ZM111.13 1466a2.76 2.76 0 0 1-1.12-5.29c138.27-61.32 260.46-41.57 312.64-33.13a2.77 2.77 0 1 1-.88 5.46c-51.69-8.36-172.75-27.93-309.52 32.73a2.74 2.74 0 0 1-1.12.23Z" class="colore9edf7 svgShape"></path><path fill="#e9edf7" d="M174.93 1486.53h-.07a2.77 2.77 0 0 1-2.7-2.83c.62-26.23 11-44.53 14.91-49.37a2.77 2.77 0 1 1 4.29 3.49c-3.36 4.13-13.09 21.45-13.67 46a2.77 2.77 0 0 1-2.76 2.71ZM172.75 1443.36a2.72 2.72 0 0 1-1.17-.26c-11.19-5.27-32.72-16.64-42.47-25.82a2.77 2.77 0 0 1 3.8-4c8 7.58 26.91 18.19 41 24.85a2.76 2.76 0 0 1-1.18 5.26ZM244.15 1428.06a2.83 2.83 0 0 1-1.16-.26c-10.41-4.84-34.22-20.46-39.44-29.11a2.77 2.77 0 1 1 4.74-2.86c4.47 7.41 27.28 22.42 37 27a2.77 2.77 0 0 1-1.17 5.28ZM243 1471.42h-.23a2.76 2.76 0 0 1-2.53-3c2.22-27.65 18.8-40 27.71-46.57.88-.66 1.68-1.25 2.39-1.81a2.77 2.77 0 1 1 3.41 4.36c-.75.58-1.59 1.21-2.5 1.89-8.78 6.51-23.48 17.42-25.5 42.57a2.77 2.77 0 0 1-2.75 2.56ZM318.64 1423.31a2.88 2.88 0 0 1-1.26-.3c-.94-.49-1.93-1-2.94-1.49-13.26-6.67-31.43-15.8-32.2-32.81a2.77 2.77 0 1 1 5.53-.25c.62 13.78 17.11 22.06 29.16 28.12l3 1.5a2.77 2.77 0 0 1-1.26 5.23ZM308.77 1461.66a2.75 2.75 0 0 1-2.66-3.51c7-25 21.09-33 32.42-39.43a2.76 2.76 0 0 1 2.74 4.8c-11 6.27-23.46 13.37-29.84 36.12a2.76 2.76 0 0 1-2.66 2.02ZM368.64 1425.93a2.75 2.75 0 0 1-1.67-.56c-19.05-14.46-26.26-29-26.67-37.87a2.77 2.77 0 0 1 2.64-2.88 2.74 2.74 0 0 1 2.89 2.63c.43 9.37 10.26 22.92 24.49 33.71a2.77 2.77 0 0 1-1.68 5ZM374.11 1469a3.41 3.41 0 0 1-.55 0 2.77 2.77 0 0 1-2.17-3.26c1.59-7.9 8.67-27.57 39.94-39.55a2.77 2.77 0 0 1 2 5.17c-28.71 11-35.08 28.47-36.49 35.47a2.78 2.78 0 0 1-2.73 2.17ZM96.46 1481.24a14.3 14.3 0 1 1 17-10.91 14.31 14.31 0 0 1-17 10.91Z" class="colore9edf7 svgShape"></path><path fill="#e9edf7" d="M126.69 1425.25a10.95 10.95 0 1 1 13-8.35 10.94 10.94 0 0 1-13 8.35ZM172.16 1501a11 11 0 1 1 13-8.36 11 11 0 0 1-13 8.36ZM200.87 1401.92a10.95 10.95 0 1 1 13-8.35 10.94 10.94 0 0 1-13 8.35ZM303.29 1472.25a10.95 10.95 0 1 1 13-8.36 10.95 10.95 0 0 1-13 8.36ZM339.42 1392.36a11 11 0 1 1 13-8.36 11 11 0 0 1-13 8.36ZM241.37 1482.23a12.28 12.28 0 1 1 14.63-9.37 12.28 12.28 0 0 1-14.63 9.37ZM280.39 1396.89a12.28 12.28 0 1 1 14.62-9.37 12.27 12.27 0 0 1-14.62 9.37ZM371 1484.39a12.28 12.28 0 1 1 14.62-9.38 12.28 12.28 0 0 1-14.62 9.38Z" class="colore9edf7 svgShape"></path><path fill="#2563eb" d="M1496.94 1225.89c80.12 25.94 96.37 103.07 53 192.31-67.61-37.87-115.73-124.89-53-192.31Z" class="color6b67e9 svgShape"></path><path fill="#172554" d="M1490.63 1149c134.87-44.28 233.49 44.69 263 209.34-129.63 15.66-281.54-55.15-263-209.34Z" class="color362e94 svgShape"></path><path fill="#2563eb" d="M1722.63 1334a2.79 2.79 0 0 1-1.84-.69c-37-32.83-90-72.59-136.66-107.68-38.59-29-75.05-56.38-95.34-74.52a2.77 2.77 0 1 1 3.69-4.12c20.11 18 56.48 45.3 95 74.22 46.78 35.15 99.8 75 137 108a2.76 2.76 0 0 1-1.83 4.83Z" class="color5652cc svgShape"></path><path fill="#93c5fd" d="M1090.6 471.64c-58.16 60.55-134.38 41.52-195.52-36.2 63.41-44.16 162.39-49.44 195.52 36.2Z" class="colorced3f8 svgShape"></path><path fill="#3b82f6" d="M1482.92 1106.58c-8.62-33.73-2.21-123.8 71.61-142.74 33.41-8.57 42.68-8.85 54.25-1.17 7.53 5 11.32 13 19.22 11.41 14.44-3 3.27-57 54.65-72.88s71.12 17.94 84.95 13.49 13.82-27.23 39.46-25.79 24.11 43.6 56.81 50c34 6.65 88 30.17 81.63 62.45s-32.32 25.85-49.12 40.89-27.66 79.06-77.9 69.23c-49.92-9.77-67-20.71-100.41 33.53s-97.22 56.06-122.15 37.33-25.12-.67-14.91 14.51-17.91 16.16-36.89 3.51-50.38-51.42-61.2-93.77Z" class="color807dfb svgShape"></path><path fill="#2563eb" d="M1468.06 1118.51a2.77 2.77 0 0 1-1.62-5c63.57-45.79 136.47-79.55 216.67-100.34 69.47-18 140-24.94 203.79-20a2.77 2.77 0 0 1-.43 5.52c-63.24-4.85-133.08 2-202 19.88-79.54 20.62-151.82 54.09-214.83 99.47a2.7 2.7 0 0 1-1.58.47Z" class="color6b67e9 svgShape"></path><path fill="#2563eb" d="M1790.33 999.84a2.77 2.77 0 0 1-2.46-4c3.55-7 14.77-39 13.75-58.82a2.76 2.76 0 1 1 5.52-.29c1.09 21.12-10.5 54-14.34 61.6a2.75 2.75 0 0 1-2.47 1.51ZM1845.91 1039.15a2.78 2.78 0 0 1-2.51-1.61c-3.63-7.83-20.24-32.4-29.43-40.22a2.77 2.77 0 0 1 3.59-4.21c9.85 8.39 27 33.71 30.86 42.11a2.77 2.77 0 0 1-1.34 3.67 2.88 2.88 0 0 1-1.17.26ZM1684.47 1018.43a2.72 2.72 0 0 1-1.44-.41 2.76 2.76 0 0 1-.91-3.8c7.71-12.6 17.73-33.29 15.67-67.34a2.76 2.76 0 0 1 5.52-.33c2.41 39.72-11.81 62.93-16.48 70.56a2.76 2.76 0 0 1-2.36 1.32ZM1769.91 1058.69a2.76 2.76 0 0 1-2.29-1.22c-9.49-14.11-33.81-43.63-43.5-48.58a2.77 2.77 0 1 1 2.52-4.93c11 5.63 35.76 35.85 45.57 50.42a2.76 2.76 0 0 1-2.3 4.31ZM1637.21 1083.68a2.77 2.77 0 0 1-2.3-1.23c-1.32-2-2.69-4.09-4.14-6.35-7.18-11.14-16.12-25-27.68-32.12a2.77 2.77 0 1 1 2.9-4.71c12.63 7.77 21.94 22.23 29.43 33.84 1.43 2.23 2.79 4.33 4.08 6.26a2.77 2.77 0 0 1-2.29 4.31ZM1561.15 1063.35a2.81 2.81 0 0 1-1.74-.62 2.77 2.77 0 0 1-.4-3.89c9.79-12.06 19.21-40.62 21-63.65a2.76 2.76 0 1 1 5.51.43c-1.86 24-11.83 53.9-22.22 66.7a2.73 2.73 0 0 1-2.15 1.03Z" class="color6b67e9 svgShape"></path><path fill="#e9edf7" d="M1094.2 476.29c-110.67-39.18-130.39-147.26-66.63-270 92.82 55.36 156.58 178.44 66.63 270Z" class="colore9edf7 svgShape"></path><path fill="#c7d2fe" d="M1094.19 479.06a2.77 2.77 0 0 1-2.71-2.26c-4.1-21.93-14.13-58.19-24.76-96.58-12.9-46.65-27.53-99.53-35.26-139.92a2.76 2.76 0 1 1 5.43-1c7.69 40.18 22.29 92.93 35.17 139.48 10.65 38.51 20.72 74.88 24.86 97a2.77 2.77 0 0 1-2.21 3.23 3.15 3.15 0 0 1-.52.05ZM398 1168.41c-44.12 108.81-153 123.69-272.7 54.53 59.4-90.27 185.2-148.48 272.7-54.53Z" class="colordde2f8 svgShape"></path><path fill="#f6f6fb" d="M159 1220.59a2.76 2.76 0 0 1-.4-5.5c40.48-5.89 93.84-18.12 140.92-28.91 38.94-8.93 75.73-17.36 98.05-20.51a2.77 2.77 0 0 1 .77 5.48c-22.09 3.11-58.76 11.52-97.59 20.42-47.18 10.81-100.65 23.07-141.35 29Z" class="colorf6f6fb svgShape"></path><path fill="#e9edf7" d="M397.8 1164.33c14.06-5.74 53.05-143.21 27.24-152.38-20.09-7.15-28.12 14-30.44 21.91-3.64 12.46-10.45 43-19.24 38.85-15.92-7.52 11.16-82.57 16.62-101.26s11-56.47-3.15-72.71-21.76-21.19-29.52 12-14.85 100.6-29.41 80.34 3.12-71.26 2.52-104.21-12.94-95.47-33-81c-18 12.89-2.33 109-18.66 104.17-13.06-3.82-7.35-31.41-12.07-74.54s-9.61-83.78-35.49-83.34c-20.79.36-11.94 27.33-9.69 50.62s4.15 55.83-7.24 49S204.88 730 171.18 723.1c-22.3-4.57-14.5 19.95-13.41 47.19s-.55 36.9-6 35.31-12.88-38.11-16.43-58.26-15.55-47.86-34.45-45.19-9.86 34.37-3.8 45.31 7.17 23.95 3.9 25.72-25.82-32.91-41.86-18.49 8.75 45.48 29.44 51.53 48.41 14.94 46.2 22.49-26.16.54-45-5-27.63-3.4-29.1 1.63c-4.91 16.78 15.51 38.09 29.29 42.13s94 16.58 90.76 27.72-32.86 3.26-48.1-1.2-50.79-14.86-56.26 3.83 39.48 42.76 69 49.46 78.25 13.92 75.73 22.54-42.54 9.41-61 4-48.79-24.41-55.52-1.41 20.14 35.95 56.43 46.59c15.18 4.45 52.87 15.06 77 8.26 27.46-7.74 42.41-7.1 44.52-.8 4.21 12.55-20.87 16.13-39.33 14.63s-75.58-9.62-73 19.23 50.2 23.65 69.56 23.46 87.46-6.79 89 8.1-35.26 8.8-46.89 8.13-36.11 5.63-30.83 15.17 121.7 59.37 146.77 49.15Z" class="colore9edf7 svgShape"></path><path fill="#c7d2fe" d="M875.35 819.25v266.08c0 187.28 151.83 339.11 339.09 339.11s339.09-151.83 339.09-339.11V819.25Z" class="colordde2f8 svgShape"></path><path fill="#2563eb" d="M1457.2 709.2h-61V652c0-100.21-81.52-181.74-181.72-181.74S1032.73 551.83 1032.73 652v167.25h-61V652c0-133.87 108.89-242.77 242.75-242.77S1457.2 518.17 1457.2 652Z" class="color6b67e9 svgShape"></path><path fill="#172554" d="M1149.18 1045.7a65.26 65.26 0 1 1 65.26 65.26 65.28 65.28 0 0 1-65.26-65.26Z" class="color362e94 svgShape"></path><path fill="#172554" d="M1186.12 1048.96h56.64v140.3h-56.64z" class="color362e94 svgShape"></path><circle cx="971.69" cy="900.11" r="31.98" fill="#93c5fd" class="colorced3f8 svgShape" transform="rotate(-75.5 971.69 900.11)"></circle><path fill="#93c5fd" d="m989.09 873.31-44.21 44.2a32.09 32.09 0 0 0 9.41 9.41l44.21-44.2a32.09 32.09 0 0 0-9.41-9.41Z" class="colorbbc0e6 svgShape"></path><circle cx="1457.19" cy="900.11" r="31.98" fill="#93c5fd" class="colorced3f8 svgShape" transform="rotate(-67.39 1457.097 900.117)"></circle><path fill="#93c5fd" d="m1474.59 873.31-44.21 44.2a32.21 32.21 0 0 0 9.41 9.41l44.21-44.2a32 32 0 0 0-9.41-9.41Z" class="colorbbc0e6 svgShape"></path><path fill="#fcba06" d="M1524.93 718.98h100.01v16.99h-100.01z" class="colorfcba06 svgShape" transform="rotate(-17.21 1574.917 727.484)"></path><path fill="#fcba06" d="M1469.06 663.94h100.01v16.99h-100.01z" class="colorfcba06 svgShape" transform="rotate(-55.9 1519.017 672.435)"></path><path fill="#fcba06" d="M1552.36 783.93h100.01v16.99h-100.01z" class="colorfcba06 svgShape" transform="rotate(5.99 1602.483 792.494)"></path><path fill="#f6d6ce" d="M479.23 810.2c22.84-6.19 38 10.59 43.45 31.79 8.22 32.07 45.45 112.75 62.25 130.31 23.31 24.35 137.18 85.81 149.44 87.46s18.86 30 8.07 27.69c-85.33-18.45-164.2-59-190.4-87.22-33.61-35.19-78.17-121.3-84.29-142.61s-2.36-43.62 11.48-47.42Z" class="colorf6d6ce svgShape"></path><path fill="#172554" d="M456.55 645.56c12-10 62.19-22.7 84.4 7.73s13 120.39-9 172.86c-12.56-6.33-55.64-12-55.64-12Z" class="color20196f svgShape"></path><path fill="#2563eb" d="M384.88 1037.23c2.46-124.39 3.44-196.72 33.27-243.59 9.07-14.23 13-11.19 19.44-11.19 15.65 9.79 41.8 9.37 56.44 6a9.51 9.51 0 0 0 1 3C516.36 828.7 567 891.33 547 916.14c-28.15 34.91-48.42 64.86-42.85 125.73Z" class="color6b67e9 svgShape"></path><path fill="#f7d3c9" d="M437.63 782.44c9.06-21.23 6.65-42 2.66-56 0 0-8.44-20.14.26-49.44 11.09-37.41 62.86-43.72 84.63-24.11 18.39 19 15.53 32.28 13.11 59.57 0 0 3.84 27.07 3.6 28.75-.35 2.45-7.7.2-8.34 1.27s-2.22 16.4-8.37 21.47-22.52-3.31-25.43 1.23c-2.16 3.37-7 15.63-5.63 23.25-14.69 3.38-40.84 3.8-56.49-5.99ZM598.68 1340c9.55 31.4 27.52 68.58 25.17 118.52s-35.13 295-35.8 309.23l-25-1.17c.79-16.65-19.82-220.18 4.7-298.25a775.61 775.61 0 0 0-53.22-113.37Z" class="colorf7d3c9 svgShape"></path><path fill="#172554" d="M575.21 1800.06c-3.75-.18-8.62 3.77-9.42 8.15l-6.84-.32a37.45 37.45 0 0 1-1.94-26.07c2.66-9.08 4.91-6.77 7.19-4.27 5.23 4.68 27.35 7.18 29.44-.2 5.69 1.13 63.87 20.88 63.62 26.33-.41 8.83-7.35 8.48-12.07 8.26-55.79-2.62-48.19-5.7-69.98-11.88Z" class="color362e94 svgShape"></path><path fill="#f7d3c9" d="M588.05 1767.7c-1.52-8.5-25.53-16-25-1.17a19.86 19.86 0 0 1-1.7 9.3c5.23 4.67 55.29 22.76 64.17 12.26-5.66-3.4-37.89-11.48-37.47-20.39ZM414 1404.18l-12.5-60.34 98.32-1.39s-19.3 67.33-27.9 87a37.52 37.52 0 0 1-8.32 11.92c-36 34.71-219.54 183.88-229.81 193.79l-17.36-18c11.84-11.48 135.51-170.43 197.57-212.98Z" class="colorf7d3c9 svgShape"></path><path fill="#172554" d="M202.24 1649.83c-2.61-2.71-8.85-3.17-12.44-.53l-4.75-4.92a37.44 37.44 0 0 1 16.45-20.31c8.17-4.78 8.23-1.55 8.17 1.82.59 7 15 24 21.57 20.07 3.36 4.72 32.15 59 28.22 62.78-6.36 6.15-11.17 1.14-14.45-2.26-38.79-40.18-31.19-37.24-42.77-56.65Z" class="color362e94 svgShape"></path><path fill="#f7d3c9" d="M233.79 1635.09c4.73-7.23-7.65-29.11-17.36-18a19.87 19.87 0 0 1-7.64 5.6c.6 7 24.61 54.49 38.29 52.94-1.8-6.36-19.71-34.34-13.29-40.54Z" class="colorf7d3c9 svgShape"></path><path fill="#172554" d="M384.88 1037.23c16.66 0 119.3 4.64 119.3 4.64 61.3 30.35 77.73 196.81 175.33 258.71-77.36 47.6-133.31 67.24-206.5 72.59-67.66 5-107.07-.1-189.18-50.09 27.07-14.58 50.3-47.36 66.92-91.91 22.63-60.66-11.41-135.82 34.13-193.94Z" class="color362e94 svgShape"></path><path fill="#fcba06" d="M723.52 1076.18h321.91v47.48h45.4v-30.08h25.88v42.32h31.37v-42.32H1174v80.51h31.37v-97.91h34.13v-31.37h-51.09v-31.38h-95v31.38H723.53a122.25 122.25 0 1 0 0 31.37ZM516 1060.47a86.38 86.38 0 1 1 86.37 86.37 86.37 86.37 0 0 1-86.37-86.37Z" class="colorfcba06 svgShape"></path><path fill="#ed9f00" d="M1045.43 1076.18v50.44h45.4v-30.08h25.88v42.32h31.37v-42.32h25.88v80.51h31.37v-100.87h-159.9z" class="colored9f00 svgShape"></path><path fill="#ed9f00" d="M1125.16 981.6h31.37v95.05h-31.37z" class="colored9f00 svgShape" transform="rotate(90 1140.85 1029.12)"></path><path fill="#ffd03e" d="M724.03 1050.73h515.43v-5.92H723.53l.5 5.92z" class="colorffd03e svgShape"></path><path fill="#fcba06" d="M1093.32 1013.43h95.05v5.57h-95.05z" class="colorfcba06 svgShape" transform="rotate(180 1140.845 1016.22)"></path><path fill="#f6d6ce" d="M769.1 1090c16.62-4.91 34.56-22.89 30.17-28.48S776.49 1072 776.49 1072c1.66-3.71 13.62-16.92 2.54-17.18-8.78-.19-15.3 18.59-15.3 18.59.53-3.83 7-14.35-1.76-14.36s-26.68 17.1-26.68 17.1c2.96 6.85 8.35 21.41 33.81 13.85Z" class="colorf6d6ce svgShape"></path><path fill="#f7d3c9" d="M324 941c27.36-44.9 82.31-112.53 98.68-123.87 18.21-12.62 40.61-16.24 48.61-4.32 13.2 19.65 2.17 39.41-16.16 51.35-22.55 14.68-63.83 60.18-84.53 88.27 35.88 34.43 106.26 87.48 115.94 90.39 11.84 3.56 16.48 1.93 22.1 3.21 2.5.56 20.33 5 19.71 6.85s-18.88-1.43-20.05 3.32 21 7.63 22.51 17.8c3.6 23.82-1 37.09-34.51 17.32-15-8.84-33.26-30.47-42.76-36.08-45.69-27-97.23-57-125.06-84.91-12.73-12.8-7.55-24.23-4.48-29.33Z" class="colorf7d3c9 svgShape"></path><path fill="#172554" d="M535.28 666.37c-19.15-.39-32.23 1.36-53 42.31-19.85 39.11-15.91 118.86-15.91 118.86-18.67-10.82-80.37-48-80.37-48 7.68-49.59 35.81-141.62 102.14-144.71 31.43-1.5 39.92 14.98 47.14 31.54Z" class="color20196f svgShape"></path><path fill="#fcba06" d="M210.27 438.17c61.33-58 243.12 4.06 258.72 41.16 9.15 21.76-2.27 43-43.75 66.05l14.61 52.73-53.52-36.18c-45.12 18.62-79.71 19.59-104.43 21.41C218.89 588 181 465.89 210.27 438.17Z" class="colorfcba06 svgShape"></path><path fill="#ffffff" d="M276 482.06c6.8-3.95 20.64 37.75 32.62 38.47s58.64-74.44 66.57-71.1c11 4.67-49 87.42-65.71 86.41-16.07-.97-40.93-49.44-33.48-53.78Z" class="colorfff svgShape"></path><path fill="#e9edf7" d="m1775 471.54-29.41-11.68a6.89 6.89 0 0 0-6.85 1l-24.83 19.62a6.94 6.94 0 0 0-2.56 6.44l4.59 31.32a6.89 6.89 0 0 0 4.29 5.43l29.41 11.69a6.94 6.94 0 0 0 6.85-1l24.83-19.63a6.94 6.94 0 0 0 2.56-6.44l-4.55-31.29a7 7 0 0 0-4.33-5.46Z" class="colore9edf7 svgShape"></path><path fill="#3b82f6" d="m459.88 158.22 17.42 46.05a6.93 6.93 0 0 0 11.84 1.94l31.17-38.12a6.92 6.92 0 0 0-4.24-11.22l-48.6-7.93a6.92 6.92 0 0 0-7.59 9.28ZM1339.79 1839.61l-37.34 32.08a6.92 6.92 0 0 0 2.22 11.79l46.45 16.31a6.94 6.94 0 0 0 9.11-7.82l-9.12-48.38a6.92 6.92 0 0 0-11.32-3.98Z" class="color807dfb svgShape"></path></g></svg></g></svg>